<?xml version="1.0" encoding="UTF-8"?>
<svg version="1.1" xmlns="http://www.w3.org/2000/svg" width="1024" height="418">
<path d="M0 0 C2.13946406 0.01306943 4.2789492 0.02302724 6.41844177 0.03001404 C12.02656757 0.05663341 17.63340724 0.12530391 23.24102783 0.20294189 C28.97235723 0.27478293 34.70389618 0.30657009 40.43554688 0.34179688 C51.66462496 0.41668008 62.89275206 0.53602036 74.12109375 0.68359375 C66.42068083 8.45247268 57.8898061 15.16502024 49.19824219 21.78515625 C44.87221685 25.085582 40.61330139 28.46375766 36.37109375 31.87109375 C30.0391785 36.95447356 23.66499188 41.97327381 17.21484375 46.90625 C10.65108129 51.92988913 4.16101279 57.03312348 -2.28051758 62.21264648 C-6.91322542 65.93041396 -11.60034222 69.56972978 -16.31860352 73.17797852 C-20.3301613 76.249569 -24.28300967 79.38689651 -28.21875 82.5546875 C-31.42251811 85.11864289 -34.64952698 87.65202657 -37.87890625 90.18359375 C-41.99906338 93.41405826 -46.1079748 96.65668764 -50.19140625 99.93359375 C-53.88007021 102.89289466 -57.59850061 105.80969079 -61.3359375 108.70703125 C-64.5034649 111.16904179 -67.66084467 113.6437752 -70.81640625 116.12109375 C-71.41453125 116.5898291 -72.01265625 117.05856445 -72.62890625 117.54150391 C-77.13051517 121.07585536 -81.57586875 124.67495847 -85.98828125 128.3203125 C-87.87890625 129.68359375 -87.87890625 129.68359375 -89.87890625 129.68359375 C-78.36563705 141.96441423 -63.39797737 151.57401331 -49.94140625 161.62109375 C-40.38056604 168.764549 -30.99004368 176.12441811 -21.58789062 183.47460938 C-12.99461906 190.18924941 -4.36880354 196.84676189 4.37475586 203.36474609 C8.56664494 206.4968383 12.7059266 209.68567402 16.80859375 212.93359375 C25.22598453 219.59447044 33.78326348 226.07074086 42.33056641 232.56347656 C47.01319554 236.1211276 51.69230605 239.68339317 56.37109375 243.24609375 C57.21551025 243.88828857 58.05992676 244.5304834 58.92993164 245.19213867 C61.32970466 247.01909496 63.72585708 248.85069557 66.12109375 250.68359375 C66.98154297 251.33827637 67.84199219 251.99295898 68.72851562 252.66748047 C69.55416016 253.30057129 70.37980469 253.93366211 71.23046875 254.5859375 C71.97780273 255.15691162 72.72513672 255.72788574 73.49511719 256.31616211 C74.03168945 256.76741455 74.56826172 257.21866699 75.12109375 257.68359375 C75.12109375 258.01359375 75.12109375 258.34359375 75.12109375 258.68359375 C64.11570535 258.89291531 53.11079699 259.05243621 42.10381699 259.1499033 C36.99166882 259.1967042 31.88089091 259.2600919 26.76953125 259.36254883 C21.82864344 259.46095912 16.88906611 259.51427972 11.94727325 259.53748894 C10.07020709 259.55400922 8.19320577 259.58626999 6.3167038 259.63516426 C-4.79517054 259.91295412 -12.11709495 259.46230436 -20.61239624 251.88313293 C-21.36034454 251.157285 -22.10829285 250.43143707 -22.87890625 249.68359375 C-24.03838056 248.77097171 -25.21035587 247.87363296 -26.40234375 247.00390625 C-32.51482665 242.29813174 -38.5972733 237.55680553 -44.65673828 232.78295898 C-48.98267666 229.37820787 -53.33726668 226.01248926 -57.70532227 222.66186523 C-67.83750098 214.88410206 -77.91155008 207.03028522 -87.94140625 199.12109375 C-93.68000294 194.59826628 -99.47642235 190.15423362 -105.28808594 185.72583008 C-110.45023377 181.7883342 -115.57625529 177.80687502 -120.69140625 173.80859375 C-127.06667745 168.82674095 -133.5129369 163.95102001 -140.00390625 159.12109375 C-146.82338566 154.04295287 -153.48642699 148.82209218 -160.04736328 143.41503906 C-167.14053478 137.59323377 -174.49702704 132.1316562 -181.87890625 126.68359375 C-181.28924037 123.37734486 -181.13038831 122.86567571 -178.24609375 120.77734375 C-177.13492188 120.08640625 -176.02375 119.39546875 -174.87890625 118.68359375 C-172.54134714 116.90710451 -170.27834376 115.03994282 -168.00390625 113.18359375 C-162.76754479 108.95110106 -157.46958492 104.82585945 -152.06640625 100.80859375 C-145.53250187 95.948328 -139.08758045 90.98416445 -132.66967773 85.97192383 C-127.51366298 81.9476496 -122.33122154 77.96029699 -117.12890625 73.99609375 C-112.01433953 70.09719367 -106.92638208 66.16897692 -101.87890625 62.18359375 C-94.67182182 56.49477139 -87.37686517 50.92372172 -80.07421875 45.35839844 C-77.86116796 43.67006121 -75.65084525 41.97821668 -73.44140625 40.28515625 C-67.29582605 35.57663963 -61.149446 30.872195 -54.94140625 26.24609375 C-48.31403449 21.29387259 -41.79611981 16.20218284 -35.2734375 11.11328125 C-34.57353195 10.58793793 -33.8736264 10.0625946 -33.1525116 9.52133179 C-30.88292199 7.79100159 -30.88292199 7.79100159 -29.25018311 5.84144592 C-21.50622423 -2.12448837 -10.24264024 -0.1838573 0 0 Z " fill="#FFFFFF" transform="translate(277.87890625,66.31640625)"/>
<path d="M0 0 C10.89 0 21.78 0 33 0 C33.91569238 4.57846189 34.12853573 8.71419504 34.09765625 13.33862305 C34.09619598 14.16519409 34.09473572 14.99176514 34.0932312 15.84338379 C34.08943517 17.63198637 34.08332916 19.42058523 34.07516479 21.2091732 C34.06238509 24.03714628 34.05588189 26.86507239 34.05102539 29.69306946 C34.0396092 35.6912341 34.02035216 41.6893599 34 47.6875 C33.97642713 54.64815299 33.95603862 61.60878412 33.94406128 68.56946754 C33.93756138 71.36036228 33.92505605 74.15118995 33.91235352 76.94206238 C33.90872267 78.64456117 33.90537073 80.34706058 33.90234375 82.04956055 C33.89459427 83.21921104 33.89459427 83.21921104 33.88668823 84.41249084 C33.8049341 88.33453456 33.8049341 88.33453456 35 92 C35 92.99 35 93.98 35 95 C35.81082031 94.05640625 36.62164062 93.1128125 37.45703125 92.140625 C43.72568835 84.86528747 50.06826486 77.68189206 56.5859375 70.62890625 C58.59124135 68.44513685 60.5586607 66.24036075 62.5 64 C65.43844065 60.60949156 68.46116302 57.30033018 71.5 54 C75.14167889 50.04410817 78.734995 46.05438376 82.2578125 41.9921875 C85.07463262 38.77116001 87.95310146 35.60582364 90.8203125 32.4296875 C92.69145094 30.3439382 94.53924831 28.24182372 96.375 26.125 C100.61898588 21.24096985 105.0156335 16.47829521 109.50537109 11.81884766 C111.12614338 9.96926612 111.12614338 9.96926612 112.37353516 7.41162109 C114.32451524 4.11441216 115.84281578 2.21199973 119 0 C125.96783613 -1.69156963 133.40359097 -0.93604009 140.5 -0.625 C142.4868675 -0.57479386 144.47385651 -0.52917442 146.4609375 -0.48828125 C151.31030822 -0.37852842 156.15381386 -0.2062612 161 0 C159.15234995 4.02752231 156.47257552 6.71328211 153.3125 9.75 C149.27607407 13.70031551 145.43475615 17.70353057 141.7734375 22.0078125 C138.80672019 25.34046851 135.58707809 28.42001651 132.4140625 31.5546875 C129.71248706 34.29123479 127.20921265 37.14979366 124.7109375 40.0703125 C122.25426881 42.84107582 119.60640023 45.402929 116.96875 48 C115.06013545 49.93891002 113.27289448 51.93699551 111.5 54 C108.48237647 57.51141648 105.26640919 60.75307402 101.96875 64 C99.45339354 66.55528276 97.13810337 69.25603616 94.8046875 71.9765625 C92.20025166 74.89668754 89.41047626 77.61378555 86.6015625 80.3359375 C84.91371276 81.92422733 84.91371276 81.92422733 84 84 C83.34 84 82.68 84 82 84 C81.68095703 84.81404297 81.68095703 84.81404297 81.35546875 85.64453125 C79.51405929 88.84444452 76.95997145 91.16294109 74.3125 93.6875 C69.3975375 98.47257761 65.00655118 103.41340047 61 109 C61.66 109 62.32 109 63 109 C64.45402342 110.6376272 65.83848678 112.33734196 67.1875 114.0625 C69.83367134 117.37548964 72.43739044 120.56649342 75.5 123.5 C78.30525702 126.20896674 80.74629532 129.08335539 83.1875 132.125 C87.63234394 137.64876333 92.38218412 142.81960572 97.21484375 148 C99.97346339 150.95876022 102.64611326 153.98395085 105.29296875 157.04296875 C107.33633431 159.3855915 109.41680859 161.69273422 111.5 164 C114.77072923 167.62432158 118.0016922 171.27883178 121.20703125 174.9609375 C123.17841043 177.20289813 125.18162691 179.41385803 127.1875 181.625 C130.78450277 185.60543961 134.27901401 189.66036646 137.75 193.75 C142.58620409 199.44370932 147.59130545 204.95381894 152.72363281 210.38183594 C155.33036071 213.14832577 157.80425206 215.88492507 160 219 C159.67 219.66 159.34 220.32 159 221 C154.74992247 221.02495303 150.49988519 221.0429783 146.24975586 221.05493164 C144.807691 221.05992148 143.36563109 221.06671573 141.92358398 221.07543945 C120.60144159 221.20108119 120.60144159 221.20108119 116.46875 218.1015625 C115.49421875 216.87566406 115.49421875 216.87566406 114.5 215.625 C113.7575 214.72007812 113.015 213.81515625 112.25 212.8828125 C111.5075 211.93148437 110.765 210.98015625 110 210 C108.50254971 208.1645835 107.00255549 206.3312395 105.5 204.5 C104.7575 203.5821875 104.015 202.664375 103.25 201.71875 C100.35524289 198.22091849 97.30410461 194.88214596 94.24609375 191.52734375 C91.15978445 188.05457486 88.26716824 184.43648782 85.3515625 180.8203125 C82.00735673 176.80948764 78.45229849 173.01408226 74.87109375 169.21484375 C73 167 73 167 73 165 C72.34 165 71.68 165 71 165 C68.64757676 162.28426816 66.48549599 159.44443796 64.2890625 156.6015625 C62.20690216 154.23514819 60.8974239 153.09811043 58 152 C58 151.01 58 150.02 58 149 C56.31114599 146.7944317 56.31114599 146.7944317 54.0625 144.5 C49.84699728 139.9653425 45.91079139 135.2783295 42.04296875 130.4453125 C40.04380562 127.97774361 40.04380562 127.97774361 37.80078125 125.8046875 C36 124 36 124 35 122 C34.17154567 132.83540272 33.8703241 143.58253777 33.92483521 154.44622421 C33.93784155 157.06084754 33.94417276 159.67541901 33.94897461 162.29006958 C33.96025952 167.81840363 33.97957197 173.34669321 34 178.875 C34.02364509 185.33623041 34.04395358 191.79743794 34.05593872 198.25870132 C34.06241823 200.83468087 34.07491105 203.41058663 34.08764648 205.98654175 C34.0912757 207.55206234 34.09462784 209.1175836 34.09765625 210.68310547 C34.10282257 211.39883728 34.10798889 212.11456909 34.11331177 212.85198975 C34.11384314 217.77231371 34.11384314 217.77231371 33 220 C22.11 220 11.22 220 0 220 C0 147.4 0 74.8 0 0 Z " fill="#FFFFFF" transform="translate(399,83)"/>
<path d="M0 0 C5.88202819 4.63401525 11.80048729 10.0349368 15.24609375 16.76953125 C15.2109375 18.69140625 15.2109375 18.69140625 14.24609375 20.76953125 C11.5859375 22.734375 11.5859375 22.734375 8.18359375 24.70703125 C7.00117631 25.40343233 5.81888453 26.1000468 4.63671875 26.796875 C3.5178125 27.44785156 2.39890625 28.09882813 1.24609375 28.76953125 C-0.36275901 29.76197445 -1.96794759 30.76043235 -3.56640625 31.76953125 C-5.14421875 32.75953125 -5.14421875 32.75953125 -6.75390625 33.76953125 C-7.09421875 33.17785156 -7.43453125 32.58617187 -7.78515625 31.9765625 C-12.13154946 24.89055443 -16.69163025 20.76505536 -24.75390625 18.45703125 C-33.27920267 16.75197197 -39.94893246 17.96130732 -47.75390625 21.76953125 C-51.78633927 25.1135001 -52.79410123 29.17672519 -53.625 34.20703125 C-53.83106413 38.30333641 -52.91960921 41.30751147 -50.75390625 44.76953125 C-43.95233357 52.26870113 -32.7350632 54.84779399 -23.41796875 58.05273438 C-7.66767621 63.48755754 7.86833582 69.17842262 16.18359375 84.76953125 C21.55355143 96.82416038 21.79412813 109.27876445 17.5078125 121.76171875 C12.38529171 133.97330082 3.60274365 141.66173373 -8.31640625 146.89453125 C-20.22039814 151.6007606 -32.13265118 152.08375337 -44.75390625 151.76953125 C-44.75390625 151.10953125 -44.75390625 150.44953125 -44.75390625 149.76953125 C-45.86765625 149.68703125 -46.98140625 149.60453125 -48.12890625 149.51953125 C-61.16378326 147.80140159 -71.80557563 139.8148418 -80.08984375 129.9453125 C-82.36867354 126.96571581 -84.1829689 124.18461244 -85.75390625 120.76953125 C-84.33459732 116.51160445 -81.18068363 115.09911288 -77.56640625 112.76953125 C-76.90576172 112.33125 -76.24511719 111.89296875 -75.56445312 111.44140625 C-71.74119129 108.93533926 -67.89498783 106.72736764 -63.75390625 104.76953125 C-63.63015625 105.40890625 -63.50640625 106.04828125 -63.37890625 106.70703125 C-63.17265625 107.38765625 -62.96640625 108.06828125 -62.75390625 108.76953125 C-62.09390625 109.09953125 -61.43390625 109.42953125 -60.75390625 109.76953125 C-59.89706354 110.98242684 -59.06779527 112.21490412 -58.25390625 113.45703125 C-53.00133903 120.59283598 -45.38141877 124.40008482 -36.75390625 125.76953125 C-28.3356234 126.76725366 -20.94735761 124.30307478 -13.75390625 119.95703125 C-8.89630155 114.64402611 -8.20878582 108.68683775 -7.75390625 101.76953125 C-8.41390625 101.43953125 -9.07390625 101.10953125 -9.75390625 100.76953125 C-10.09733074 99.43876136 -10.43010499 98.10521146 -10.75390625 96.76953125 C-11.41390625 96.10953125 -12.07390625 95.44953125 -12.75390625 94.76953125 C-13.96046875 93.47015625 -13.96046875 93.47015625 -15.19140625 92.14453125 C-17.53831203 89.42964892 -17.53831203 89.42964892 -20.75390625 89.76953125 C-21.08390625 89.10953125 -21.41390625 88.44953125 -21.75390625 87.76953125 C-23.97462429 86.89561038 -26.15883006 86.133964 -28.4296875 85.4140625 C-29.83018646 84.95149974 -31.23057321 84.48859716 -32.63085938 84.02539062 C-34.82951571 83.30755616 -37.02935311 82.59391717 -39.23168945 81.88745117 C-53.86759842 77.17011966 -69.11885553 71.29185523 -77.12890625 57.33203125 C-82.38459989 46.77779864 -83.68159615 35.07421569 -80.69140625 23.51953125 C-76.49286129 11.81803094 -68.82955073 3.63755977 -58.12890625 -2.48046875 C-39.97274689 -10.68002459 -17.00228548 -11.32529977 0 0 Z " fill="#FFFFFF" transform="translate(836.75390625,157.23046875)"/>
<path d="M0 0 C9.9 0 19.8 0 30 0 C30 17.49 30 34.98 30 53 C41.88 53 53.76 53 66 53 C66 61.25 66 69.5 66 78 C54.12 78 42.24 78 30 78 C30.08561633 89.5964878 30.17942612 101.19283074 30.28752708 112.78913116 C30.3374018 118.17417338 30.38373257 123.55919682 30.421875 128.94433594 C30.45883932 134.14452392 30.50522938 139.34455134 30.55806351 144.54460144 C30.5765483 146.52521438 30.59167792 148.50586165 30.60334396 150.48652649 C30.6203079 153.26787643 30.64936694 156.04886337 30.68115234 158.83007812 C30.68331253 159.64288239 30.68547272 160.45568665 30.68769836 161.29312134 C30.77451402 167.26777678 31.10078875 173.42249901 34.75 178.375 C39.90752305 182.09987776 44.24078642 182.15874231 50.33984375 181.484375 C53.61089485 180.88876511 56.80309172 179.91340237 60 179 C60 186.92 60 194.84 60 203 C46.30444362 208.47822255 35.11091428 209.90126994 21 205 C14.55496765 202.09643594 10.31287991 197.49209771 6 192 C5.5076033 191.38876785 5.0152066 190.77753571 4.50788879 190.14778137 C-2.43477356 180.2589083 -0.37875109 165.71964013 -0.29296875 154.26953125 C-0.28736562 152.06565135 -0.28309891 149.86176768 -0.28010559 147.65788269 C-0.26871333 141.88916502 -0.23929496 136.12067803 -0.20599365 130.35205078 C-0.17517106 124.45283121 -0.16157431 118.55357396 -0.14648438 112.65429688 C-0.11441947 101.10274752 -0.0616979 89.55142913 0 78 C-7.92 78 -15.84 78 -24 78 C-24 69.09 -24 60.18 -24 51 C-23.34 51.33 -22.68 51.66 -22 52 C-14.74 52.33 -7.48 52.66 0 53 C0 35.51 0 18.02 0 0 Z " fill="#FFFFFF" transform="translate(886,100)"/>
<path d="M0 0 C2.90436468 0.51500075 5.75095468 1.09824799 8.625 1.75 C9.42035156 1.92015625 10.21570313 2.0903125 11.03515625 2.265625 C15.98780077 3.37163429 20.40037798 4.85433182 25 7 C24.37165495 10.79111532 23.26471197 14.00780452 21.71484375 17.51953125 C21.04291992 19.0519043 21.04291992 19.0519043 20.35742188 20.61523438 C19.88884766 21.67033203 19.42027344 22.72542969 18.9375 23.8125 C18.46505859 24.88693359 17.99261719 25.96136719 17.50585938 27.06835938 C16.34167464 29.71423376 15.17292168 32.35798995 14 35 C9.62296385 35 8.57296849 34.2331053 5 32 C-1.44875054 29.77005823 -11.14752423 29.90496639 -17.65234375 31.75390625 C-19.58691412 32.70076891 -21.26447276 33.72934613 -23 35 C-23.886875 35.556875 -24.77375 36.11375 -25.6875 36.6875 C-37.98434073 48.98434073 -36.46030307 69.35846028 -36.51171875 85.46875 C-36.52860628 87.48613548 -36.54676183 89.5035107 -36.56611633 91.52087402 C-36.61318064 96.77480866 -36.64326974 102.0287017 -36.66955566 107.28277588 C-36.69958364 112.66646539 -36.74603626 118.05001207 -36.79101562 123.43359375 C-36.87655177 133.95566997 -36.94259313 144.47773269 -37 155 C-46.9 155 -56.8 155 -67 155 C-67 105.17 -67 55.34 -67 4 C-57.1 4 -47.2 4 -37 4 C-35.7937748 7.61867559 -35.89183082 10.92506251 -35.9375 14.6875 C-35.94201172 15.38939453 -35.94652344 16.09128906 -35.95117188 16.81445312 C-35.96293073 18.54300538 -35.98086546 20.27151365 -36 22 C-35.53851562 21.35933594 -35.07703125 20.71867187 -34.6015625 20.05859375 C-26.8940328 9.83773915 -18.57703257 3.76924908 -5.8515625 1.640625 C-4.23582165 1.41639974 -2.61809342 1.20656512 -1 1 C-0.67 0.67 -0.34 0.34 0 0 Z " fill="#FFFFFF" transform="translate(649,149)"/>
<path d="M0 0 C0.24609566 2.57308388 0.24609566 2.57308388 0.24050903 5.89712524 C0.24325836 7.15358353 0.24600769 8.41004181 0.24884033 9.70457458 C0.24176157 11.10464572 0.23449194 12.5047159 0.22705078 13.90478516 C0.22648689 15.37304171 0.2268028 16.84129883 0.22793579 18.30955505 C0.22851116 22.30315999 0.21672721 26.29664553 0.20278788 30.29022264 C0.19031107 34.46092154 0.18911243 38.63162297 0.18673706 42.80233765 C0.1805133 50.70359983 0.1640904 58.60480688 0.14403808 66.50604475 C0.12170691 75.49986631 0.11069266 84.49369048 0.10064721 93.48753285 C0.07972492 111.99171987 0.04453159 130.49585551 0 149 C-4.08726876 149.7159336 -7.90219327 150.11906086 -12.0546875 150.09765625 C-13.16328125 150.09443359 -14.271875 150.09121094 -15.4140625 150.08789062 C-16.55617188 150.07951172 -17.69828125 150.07113281 -18.875 150.0625 C-20.0403125 150.05798828 -21.205625 150.05347656 -22.40625 150.04882812 C-25.27088645 150.03708781 -28.13541633 150.0206657 -31 150 C-31.76728705 114.3964007 -32.11070842 78.80155528 -32.12338257 43.18972778 C-32.12500499 40.17823974 -32.1285692 37.16675918 -32.13256836 34.15527344 C-32.13839643 29.38584701 -32.13866484 24.61645268 -32.13431931 19.84702492 C-32.13331965 18.06965973 -32.13391673 16.29229288 -32.13615799 14.51492882 C-32.13868644 12.07917393 -32.13493779 9.64351164 -32.12939453 7.20776367 C-32.13142128 6.48577034 -32.13344803 5.76377701 -32.13553619 5.01990509 C-32.11430409 0.11430409 -32.11430409 0.11430409 -31 -1 C-26.88927748 -1.35514828 -22.76737793 -1.46915825 -18.64428711 -1.61254883 C-16.57411 -1.687082 -14.50503839 -1.7777272 -12.43554688 -1.86914062 C-10.48938477 -1.9397168 -10.48938477 -1.9397168 -8.50390625 -2.01171875 C-6.70675171 -2.08072388 -6.70675171 -2.08072388 -4.87329102 -2.15112305 C-2 -2 -2 -2 0 0 Z " fill="#FFFFFF" transform="translate(724,154)"/>
<path d="M0 0 C10.43978529 7.82983896 20.73591434 15.74707644 30.8215332 24.02368164 C36.31718832 28.50678791 41.95200586 32.77954112 47.68481445 36.95458984 C51.45587468 39.72721327 54.77902569 42.60042481 58 46 C57.030625 46.78761719 56.06125 47.57523437 55.0625 48.38671875 C54.42296387 48.90637207 53.78342773 49.42602539 53.12451172 49.96142578 C51.68875839 51.12791349 50.2528828 52.29425074 48.81689453 53.46044922 C45.16418276 56.42723555 41.51310574 59.39596133 37.8671875 62.37109375 C30.92465908 68.03228871 23.95591591 73.65312312 16.89306641 79.16381836 C12.50423287 82.58889208 8.18268627 86.09079396 3.890625 89.63671875 C2 91 2 91 0 91 C0 60.97 0 30.94 0 0 Z " fill="#FFFFFF" transform="translate(97,215)"/>
<path d="M0 0 C4.04027685 2.25365902 7.46556094 4.97219583 10.9375 8 C15.53667501 11.95497369 20.20721461 15.78216313 25 19.5 C30.19412052 23.53243867 35.23432017 27.70630197 40.2175293 31.99584961 C44.90671393 35.99955282 49.81882805 39.63623792 54.83203125 43.22265625 C55.54746094 43.80917969 56.26289063 44.39570312 57 45 C57 45.66 57 46.32 57 47 C55.15625 48.48828125 55.15625 48.48828125 52.5 50.3125 C47.57101512 53.80518248 42.85726644 57.48094004 38.1875 61.3125 C32.54926401 65.93554669 26.86735684 70.48741644 21.10083008 74.94946289 C18.11693452 77.27541741 15.21514192 79.65939429 12.37890625 82.1640625 C11.79069092 82.6801709 11.20247559 83.1962793 10.59643555 83.72802734 C9.47466867 84.719815 8.36226523 85.72232714 7.26098633 86.73681641 C5.7421875 88.078125 5.7421875 88.078125 3 90 C0.82861328 89.62011719 0.82861328 89.62011719 -1 89 C-1.02313452 77.69115443 -1.04092077 66.38231447 -1.05181217 55.07345009 C-1.05703856 49.82272127 -1.06413181 44.57200859 -1.07543945 39.32128906 C-1.08627696 34.25738745 -1.09227868 29.1935014 -1.09487724 24.12958908 C-1.09672993 22.19422536 -1.10034756 20.25886252 -1.10573006 18.3235054 C-1.11295192 15.62011093 -1.11399045 12.91678141 -1.11352539 10.21337891 C-1.11712067 9.40705521 -1.12071594 8.60073151 -1.12442017 7.76997375 C-1.11405216 2.22810432 -1.11405216 2.22810432 0 0 Z " fill="#FFFFFF" transform="translate(97,76)"/>
<path d="M0 0 C5.16139124 3.09100266 8.55249285 6.67946146 10.82421875 12.3046875 C11.90168274 18.18176384 11.61340485 23.43637952 8.82421875 28.8046875 C5.02525044 34.1437781 1.08298675 37.57950489 -5.48828125 39.0546875 C-11.07675374 39.57213866 -15.56483845 38.65633833 -20.48828125 36.0546875 C-26.27371818 31.16920742 -28.97709988 26.31453225 -29.86328125 18.9296875 C-29.2410818 12.5002932 -26.5511068 7.06720024 -21.92578125 2.5546875 C-15.17892392 -1.5972247 -7.67446794 -2.91557495 0 0 Z " fill="#FFFFFF" transform="translate(716.48828125,78.9453125)"/>
<path d="M0 0 C1.98 0 3.96 0 6 0 C5.67 0.66 5.34 1.32 5 2 C3.35 1.67 1.7 1.34 0 1 C0 0.67 0 0.34 0 0 Z " fill="#FFFFFF" transform="translate(879,179)"/>
<path d="M0 0 C1 4 1 4 1 4 Z " fill="#FFFFFF" transform="translate(753,189)"/>
<path d="" fill="#FFFFFF" transform="translate(0,0)"/>
<path d="M0 0 C3 1 3 1 3 1 Z " fill="#FFFFFF" transform="translate(637,180)"/>
<path d="M0 0 C3 1 3 1 3 1 Z " fill="#FFFFFF" transform="translate(930,179)"/>
<path d="M0 0 C0.66 0.66 1.32 1.32 2 2 C1.34 2 0.68 2 0 2 C0 1.34 0 0.68 0 0 Z " fill="#FFFFFF" transform="translate(880,150)"/>
<path d="M0 0 C2 1 2 1 2 1 Z " fill="#FFFFFF" transform="translate(216,288)"/>
<path d="" fill="#FFFFFF" transform="translate(0,0)"/>
<path d="" fill="#FFFFFF" transform="translate(0,0)"/>
<path d="" fill="#FFFFFF" transform="translate(0,0)"/>
<path d="" fill="#FFFFFF" transform="translate(0,0)"/>
<path d="" fill="#FFFFFF" transform="translate(0,0)"/>
<path d="" fill="#FFFFFF" transform="translate(0,0)"/>
<path d="" fill="#FFFFFF" transform="translate(0,0)"/>
<path d="" fill="#FFFFFF" transform="translate(0,0)"/>
<path d="" fill="#FFFFFF" transform="translate(0,0)"/>
<path d="M0 0 C2 1 2 1 2 1 Z " fill="#FFFFFF" transform="translate(790,205)"/>
<path d="" fill="#FFFFFF" transform="translate(0,0)"/>
<path d="" fill="#FFFFFF" transform="translate(0,0)"/>
<path d="" fill="#FFFFFF" transform="translate(0,0)"/>
<path d="" fill="#FFFFFF" transform="translate(0,0)"/>
<path d="" fill="#FFFFFF" transform="translate(0,0)"/>
<path d="M0 0 C2 1 2 1 2 1 Z " fill="#FFFFFF" transform="translate(657,184)"/>
<path d="M0 0 C2 1 2 1 2 1 Z " fill="#FFFFFF" transform="translate(948,179)"/>
<path d="M0 0 C2 1 2 1 2 1 Z " fill="#FFFFFF" transform="translate(944,179)"/>
<path d="M0 0 C2 1 2 1 2 1 Z " fill="#FFFFFF" transform="translate(935,179)"/>
<path d="M0 0 C2 1 2 1 2 1 Z " fill="#FFFFFF" transform="translate(875,179)"/>
<path d="M0 0 C2 1 2 1 2 1 Z " fill="#FFFFFF" transform="translate(809,176)"/>
<path d="" fill="#FFFFFF" transform="translate(0,0)"/>
<path d="M0 0 C2 1 2 1 2 1 Z " fill="#FFFFFF" transform="translate(917,151)"/>
<path d="M0 0 C2 1 2 1 2 1 Z " fill="#FFFFFF" transform="translate(883,151)"/>
<path d="M0 0 C2 1 2 1 2 1 Z " fill="#FFFFFF" transform="translate(720,151)"/>
<path d="M0 0 C2 1 2 1 2 1 Z " fill="#FFFFFF" transform="translate(717,116)"/>
<path d="" fill="#FFFFFF" transform="translate(0,0)"/>
<path d="M0 0 C2 1 2 1 2 1 Z " fill="#FFFFFF" transform="translate(496,105)"/>
<path d="" fill="#FFFFFF" transform="translate(0,0)"/>
<path d="" fill="#FFFFFF" transform="translate(0,0)"/>
<path d="" fill="#FFFFFF" transform="translate(0,0)"/>
<path d="" fill="#FFFFFF" transform="translate(0,0)"/>
<path d="" fill="#FFFFFF" transform="translate(0,0)"/>
<path d="" fill="#FFFFFF" transform="translate(0,0)"/>
<path d="" fill="#FFFFFF" transform="translate(0,0)"/>
<path d="" fill="#FFFFFF" transform="translate(0,0)"/>
<path d="" fill="#FFFFFF" transform="translate(0,0)"/>
<path d="" fill="#FFFFFF" transform="translate(0,0)"/>
<path d="" fill="#FFFFFF" transform="translate(0,0)"/>
<path d="" fill="#FFFFFF" transform="translate(0,0)"/>
<path d="" fill="#FFFFFF" transform="translate(0,0)"/>
<path d="" fill="#FFFFFF" transform="translate(0,0)"/>
<path d="" fill="#FFFFFF" transform="translate(0,0)"/>
<path d="" fill="#FFFFFF" transform="translate(0,0)"/>
<path d="" fill="#FFFFFF" transform="translate(0,0)"/>
<path d="" fill="#FFFFFF" transform="translate(0,0)"/>
<path d="" fill="#FFFFFF" transform="translate(0,0)"/>
<path d="" fill="#FFFFFF" transform="translate(0,0)"/>
<path d="" fill="#FFFFFF" transform="translate(0,0)"/>
<path d="" fill="#FFFFFF" transform="translate(0,0)"/>
<path d="" fill="#FFFFFF" transform="translate(0,0)"/>
<path d="" fill="#FFFFFF" transform="translate(0,0)"/>
<path d="" fill="#FFFFFF" transform="translate(0,0)"/>
<path d="" fill="#FFFFFF" transform="translate(0,0)"/>
<path d="" fill="#FFFFFF" transform="translate(0,0)"/>
<path d="" fill="#FFFFFF" transform="translate(0,0)"/>
<path d="" fill="#FFFFFF" transform="translate(0,0)"/>
<path d="" fill="#FFFFFF" transform="translate(0,0)"/>
<path d="" fill="#FFFFFF" transform="translate(0,0)"/>
<path d="" fill="#FFFFFF" transform="translate(0,0)"/>
<path d="" fill="#FFFFFF" transform="translate(0,0)"/>
<path d="" fill="#FFFFFF" transform="translate(0,0)"/>
<path d="" fill="#FFFFFF" transform="translate(0,0)"/>
<path d="" fill="#FFFFFF" transform="translate(0,0)"/>
<path d="" fill="#FFFFFF" transform="translate(0,0)"/>
<path d="" fill="#FFFFFF" transform="translate(0,0)"/>
<path d="" fill="#FFFFFF" transform="translate(0,0)"/>
<path d="" fill="#FFFFFF" transform="translate(0,0)"/>
<path d="" fill="#FFFFFF" transform="translate(0,0)"/>
<path d="" fill="#FFFFFF" transform="translate(0,0)"/>
<path d="" fill="#FFFFFF" transform="translate(0,0)"/>
<path d="" fill="#FFFFFF" transform="translate(0,0)"/>
<path d="" fill="#FFFFFF" transform="translate(0,0)"/>
<path d="" fill="#FFFFFF" transform="translate(0,0)"/>
<path d="" fill="#FFFFFF" transform="translate(0,0)"/>
<path d="" fill="#FFFFFF" transform="translate(0,0)"/>
<path d="" fill="#FFFFFF" transform="translate(0,0)"/>
<path d="" fill="#FFFFFF" transform="translate(0,0)"/>
<path d="" fill="#FFFFFF" transform="translate(0,0)"/>
<path d="" fill="#FFFFFF" transform="translate(0,0)"/>
<path d="" fill="#FFFFFF" transform="translate(0,0)"/>
<path d="" fill="#FFFFFF" transform="translate(0,0)"/>
<path d="" fill="#FFFFFF" transform="translate(0,0)"/>
<path d="" fill="#FFFFFF" transform="translate(0,0)"/>
<path d="" fill="#FFFFFF" transform="translate(0,0)"/>
<path d="" fill="#FFFFFF" transform="translate(0,0)"/>
<path d="" fill="#FFFFFF" transform="translate(0,0)"/>
<path d="" fill="#FFFFFF" transform="translate(0,0)"/>
<path d="" fill="#FFFFFF" transform="translate(0,0)"/>
<path d="" fill="#FFFFFF" transform="translate(0,0)"/>
<path d="" fill="#FFFFFF" transform="translate(0,0)"/>
<path d="" fill="#FFFFFF" transform="translate(0,0)"/>
<path d="" fill="#FFFFFF" transform="translate(0,0)"/>
<path d="" fill="#FFFFFF" transform="translate(0,0)"/>
<path d="" fill="#FFFFFF" transform="translate(0,0)"/>
<path d="" fill="#FFFFFF" transform="translate(0,0)"/>
<path d="" fill="#FFFFFF" transform="translate(0,0)"/>
<path d="" fill="#FFFFFF" transform="translate(0,0)"/>
<path d="" fill="#FFFFFF" transform="translate(0,0)"/>
<path d="" fill="#FFFFFF" transform="translate(0,0)"/>
<path d="" fill="#FFFFFF" transform="translate(0,0)"/>
<path d="" fill="#FFFFFF" transform="translate(0,0)"/>
<path d="" fill="#FFFFFF" transform="translate(0,0)"/>
<path d="" fill="#FFFFFF" transform="translate(0,0)"/>
<path d="" fill="#FFFFFF" transform="translate(0,0)"/>
<path d="" fill="#FFFFFF" transform="translate(0,0)"/>
<path d="" fill="#FFFFFF" transform="translate(0,0)"/>
<path d="" fill="#FFFFFF" transform="translate(0,0)"/>
<path d="" fill="#FFFFFF" transform="translate(0,0)"/>
<path d="" fill="#FFFFFF" transform="translate(0,0)"/>
<path d="" fill="#FFFFFF" transform="translate(0,0)"/>
<path d="" fill="#FFFFFF" transform="translate(0,0)"/>
<path d="" fill="#FFFFFF" transform="translate(0,0)"/>
<path d="" fill="#FFFFFF" transform="translate(0,0)"/>
<path d="" fill="#FFFFFF" transform="translate(0,0)"/>
<path d="" fill="#FFFFFF" transform="translate(0,0)"/>
<path d="" fill="#FFFFFF" transform="translate(0,0)"/>
<path d="" fill="#FFFFFF" transform="translate(0,0)"/>
<path d="" fill="#FFFFFF" transform="translate(0,0)"/>
<path d="" fill="#FFFFFF" transform="translate(0,0)"/>
<path d="" fill="#FFFFFF" transform="translate(0,0)"/>
<path d="" fill="#FFFFFF" transform="translate(0,0)"/>
<path d="" fill="#FFFFFF" transform="translate(0,0)"/>
<path d="" fill="#FFFFFF" transform="translate(0,0)"/>
<path d="" fill="#FFFFFF" transform="translate(0,0)"/>
<path d="" fill="#FFFFFF" transform="translate(0,0)"/>
<path d="" fill="#FFFFFF" transform="translate(0,0)"/>
<path d="" fill="#FFFFFF" transform="translate(0,0)"/>
<path d="" fill="#FFFFFF" transform="translate(0,0)"/>
<path d="" fill="#FFFFFF" transform="translate(0,0)"/>
<path d="" fill="#FFFFFF" transform="translate(0,0)"/>
<path d="" fill="#FFFFFF" transform="translate(0,0)"/>
<path d="" fill="#FFFFFF" transform="translate(0,0)"/>
<path d="" fill="#FFFFFF" transform="translate(0,0)"/>
<path d="" fill="#FFFFFF" transform="translate(0,0)"/>
<path d="" fill="#FFFFFF" transform="translate(0,0)"/>
<path d="" fill="#FFFFFF" transform="translate(0,0)"/>
<path d="" fill="#FFFFFF" transform="translate(0,0)"/>
<path d="" fill="#FFFFFF" transform="translate(0,0)"/>
<path d="" fill="#FFFFFF" transform="translate(0,0)"/>
<path d="" fill="#FFFFFF" transform="translate(0,0)"/>
<path d="" fill="#FFFFFF" transform="translate(0,0)"/>
<path d="" fill="#FFFFFF" transform="translate(0,0)"/>
<path d="" fill="#FFFFFF" transform="translate(0,0)"/>
<path d="" fill="#FFFFFF" transform="translate(0,0)"/>
<path d="" fill="#FFFFFF" transform="translate(0,0)"/>
<path d="" fill="#FFFFFF" transform="translate(0,0)"/>
<path d="" fill="#FFFFFF" transform="translate(0,0)"/>
<path d="" fill="#FFFFFF" transform="translate(0,0)"/>
<path d="" fill="#FFFFFF" transform="translate(0,0)"/>
<path d="" fill="#FFFFFF" transform="translate(0,0)"/>
<path d="" fill="#FFFFFF" transform="translate(0,0)"/>
<path d="" fill="#FFFFFF" transform="translate(0,0)"/>
<path d="" fill="#FFFFFF" transform="translate(0,0)"/>
<path d="" fill="#FFFFFF" transform="translate(0,0)"/>
<path d="" fill="#FFFFFF" transform="translate(0,0)"/>
<path d="" fill="#FFFFFF" transform="translate(0,0)"/>
<path d="" fill="#FFFFFF" transform="translate(0,0)"/>
<path d="" fill="#FFFFFF" transform="translate(0,0)"/>
<path d="" fill="#FFFFFF" transform="translate(0,0)"/>
<path d="" fill="#FFFFFF" transform="translate(0,0)"/>
<path d="" fill="#FFFFFF" transform="translate(0,0)"/>
<path d="" fill="#FFFFFF" transform="translate(0,0)"/>
<path d="" fill="#FFFFFF" transform="translate(0,0)"/>
<path d="" fill="#FFFFFF" transform="translate(0,0)"/>
<path d="" fill="#FFFFFF" transform="translate(0,0)"/>
<path d="" fill="#FFFFFF" transform="translate(0,0)"/>
<path d="" fill="#FFFFFF" transform="translate(0,0)"/>
<path d="" fill="#FFFFFF" transform="translate(0,0)"/>
<path d="" fill="#FFFFFF" transform="translate(0,0)"/>
<path d="" fill="#FFFFFF" transform="translate(0,0)"/>
<path d="" fill="#FFFFFF" transform="translate(0,0)"/>
<path d="" fill="#FFFFFF" transform="translate(0,0)"/>
<path d="" fill="#FFFFFF" transform="translate(0,0)"/>
<path d="" fill="#FFFFFF" transform="translate(0,0)"/>
<path d="" fill="#FFFFFF" transform="translate(0,0)"/>
<path d="" fill="#FFFFFF" transform="translate(0,0)"/>
<path d="" fill="#FFFFFF" transform="translate(0,0)"/>
<path d="" fill="#FFFFFF" transform="translate(0,0)"/>
<path d="" fill="#FFFFFF" transform="translate(0,0)"/>
<path d="" fill="#FFFFFF" transform="translate(0,0)"/>
<path d="" fill="#FFFFFF" transform="translate(0,0)"/>
<path d="" fill="#FFFFFF" transform="translate(0,0)"/>
<path d="" fill="#FFFFFF" transform="translate(0,0)"/>
<path d="" fill="#FFFFFF" transform="translate(0,0)"/>
<path d="" fill="#FFFFFF" transform="translate(0,0)"/>
<path d="" fill="#FFFFFF" transform="translate(0,0)"/>
<path d="" fill="#FFFFFF" transform="translate(0,0)"/>
</svg>
