<?xml version="1.0" encoding="UTF-8"?>
<svg version="1.1" xmlns="http://www.w3.org/2000/svg" width="1024" height="400">
<path d="M0 0 C2.13946406 0.01306943 4.2789492 0.02302724 6.41844177 0.03001404 C12.02656757 0.05663341 17.63340724 0.12530391 23.24102783 0.20294189 C28.97235723 0.27478293 34.70389618 0.30657009 40.43554688 0.34179688 C51.66462496 0.41668008 62.89275206 0.53602036 74.12109375 0.68359375 C66.42068083 8.45247268 57.8898061 15.16502024 49.19824219 21.78515625 C44.87221685 25.085582 40.61330139 28.46375766 36.37109375 31.87109375 C30.0391785 36.95447356 23.66499188 41.97327381 17.21484375 46.90625 C10.65108129 51.92988913 4.16101279 57.03312348 -2.28051758 62.21264648 C-6.91322542 65.93041396 -11.60034222 69.56972978 -16.31860352 73.17797852 C-20.3301613 76.249569 -24.28300967 79.38689651 -28.21875 82.5546875 C-31.42251811 85.11864289 -34.64952698 87.65202657 -37.87890625 90.18359375 C-41.99906338 93.41405826 -46.1079748 96.65668764 -50.19140625 99.93359375 C-53.88007021 102.89289466 -57.59850061 105.80969079 -61.3359375 108.70703125 C-64.5034649 111.16904179 -67.66084467 113.6437752 -70.81640625 116.12109375 C-71.41453125 116.5898291 -72.01265625 117.05856445 -72.62890625 117.54150391 C-77.13051517 121.07585536 -81.57586875 124.67495847 -85.98828125 128.3203125 C-87.87890625 129.68359375 -87.87890625 129.68359375 -89.87890625 129.68359375 C-78.36563705 141.96441423 -63.39797737 151.57401331 -49.94140625 161.62109375 C-40.38056604 168.764549 -30.99004368 176.12441811 -21.58789062 183.47460938 C-12.99461906 190.18924941 -4.36880354 196.84676189 4.37475586 203.36474609 C8.56664494 206.4968383 12.7059266 209.68567402 16.80859375 212.93359375 C25.22598453 219.59447044 33.78326348 226.07074086 42.33056641 232.56347656 C47.01319554 236.1211276 51.69230605 239.68339317 56.37109375 243.24609375 C57.21551025 243.88828857 58.05992676 244.5304834 58.92993164 245.19213867 C61.32970466 247.01909496 63.72585708 248.85069557 66.12109375 250.68359375 C66.98154297 251.33827637 67.84199219 251.99295898 68.72851562 252.66748047 C69.55416016 253.30057129 70.37980469 253.93366211 71.23046875 254.5859375 C71.97780273 255.15691162 72.72513672 255.72788574 73.49511719 256.31616211 C74.03168945 256.76741455 74.56826172 257.21866699 75.12109375 257.68359375 C75.12109375 258.01359375 75.12109375 258.34359375 75.12109375 258.68359375 C64.11570535 258.89291531 53.11079699 259.05243621 42.10381699 259.1499033 C36.99166882 259.1967042 31.88089091 259.2600919 26.76953125 259.36254883 C21.82864344 259.46095912 16.88906611 259.51427972 11.94727325 259.53748894 C10.07020709 259.55400922 8.19320577 259.58626999 6.3167038 259.63516426 C-4.79517054 259.91295412 -12.11709495 259.46230436 -20.61239624 251.88313293 C-21.36034454 251.157285 -22.10829285 250.43143707 -22.87890625 249.68359375 C-24.03838056 248.77097171 -25.21035587 247.87363296 -26.40234375 247.00390625 C-32.51482665 242.29813174 -38.5972733 237.55680553 -44.65673828 232.78295898 C-48.98267666 229.37820787 -53.33726668 226.01248926 -57.70532227 222.66186523 C-67.83750098 214.88410206 -77.91155008 207.03028522 -87.94140625 199.12109375 C-93.68000294 194.59826628 -99.47642235 190.15423362 -105.28808594 185.72583008 C-110.45023377 181.7883342 -115.57625529 177.80687502 -120.69140625 173.80859375 C-127.06667745 168.82674095 -133.5129369 163.95102001 -140.00390625 159.12109375 C-146.82338566 154.04295287 -153.48642699 148.82209218 -160.04736328 143.41503906 C-167.14053478 137.59323377 -174.49702704 132.1316562 -181.87890625 126.68359375 C-181.28924037 123.37734486 -181.13038831 122.86567571 -178.24609375 120.77734375 C-177.13492188 120.08640625 -176.02375 119.39546875 -174.87890625 118.68359375 C-172.54134714 116.90710451 -170.27834376 115.03994282 -168.00390625 113.18359375 C-162.76754479 108.95110106 -157.46958492 104.82585945 -152.06640625 100.80859375 C-145.53250187 95.948328 -139.08758045 90.98416445 -132.66967773 85.97192383 C-127.51366298 81.9476496 -122.33122154 77.96029699 -117.12890625 73.99609375 C-112.01433953 70.09719367 -106.92638208 66.16897692 -101.87890625 62.18359375 C-94.67182182 56.49477139 -87.37686517 50.92372172 -80.07421875 45.35839844 C-77.86116796 43.67006121 -75.65084525 41.97821668 -73.44140625 40.28515625 C-67.29582605 35.57663963 -61.149446 30.872195 -54.94140625 26.24609375 C-48.31403449 21.29387259 -41.79611981 16.20218284 -35.2734375 11.11328125 C-34.57353195 10.58793793 -33.8736264 10.0625946 -33.1525116 9.52133179 C-30.88292199 7.79100159 -30.88292199 7.79100159 -29.25018311 5.84144592 C-21.50622423 -2.12448837 -10.24264024 -0.1838573 0 0 Z " fill="#121119" transform="translate(277.87890625,66.31640625)"/>
<path d="M0 0 C10.89 0 21.78 0 33 0 C33.91569238 4.57846189 34.12853573 8.71419504 34.09765625 13.33862305 C34.09619598 14.16519409 34.09473572 14.99176514 34.0932312 15.84338379 C34.08943517 17.63198637 34.08332916 19.42058523 34.07516479 21.2091732 C34.06238509 24.03714628 34.05588189 26.86507239 34.05102539 29.69306946 C34.0396092 35.6912341 34.02035216 41.6893599 34 47.6875 C33.97642713 54.64815299 33.95603862 61.60878412 33.94406128 68.56946754 C33.93756138 71.36036228 33.92505605 74.15118995 33.91235352 76.94206238 C33.90872267 78.64456117 33.90537073 80.34706058 33.90234375 82.04956055 C33.89459427 83.21921104 33.89459427 83.21921104 33.88668823 84.41249084 C33.8049341 88.33453456 33.8049341 88.33453456 35 92 C35 92.99 35 93.98 35 95 C35.81082031 94.05640625 36.62164062 93.1128125 37.45703125 92.140625 C43.72568835 84.86528747 50.06826486 77.68189206 56.5859375 70.62890625 C58.59124135 68.44513685 60.5586607 66.24036075 62.5 64 C65.43844065 60.60949156 68.46116302 57.30033018 71.5 54 C75.14167889 50.04410817 78.734995 46.05438376 82.2578125 41.9921875 C85.07463262 38.77116001 87.95310146 35.60582364 90.8203125 32.4296875 C92.69145094 30.3439382 94.53924831 28.24182372 96.375 26.125 C100.61898588 21.24096985 105.0156335 16.47829521 109.50537109 11.81884766 C111.12614338 9.96926612 111.12614338 9.96926612 112.37353516 7.41162109 C114.32451524 4.11441216 115.84281578 2.21199973 119 0 C125.96783613 -1.69156963 133.40359097 -0.93604009 140.5 -0.625 C142.4868675 -0.57479386 144.47385651 -0.52917442 146.4609375 -0.48828125 C151.31030822 -0.37852842 156.15381386 -0.2062612 161 0 C159.15234995 4.02752231 156.47257552 6.71328211 153.3125 9.75 C149.27607407 13.70031551 145.43475615 17.70353057 141.7734375 22.0078125 C138.80672019 25.34046851 135.58707809 28.42001651 132.4140625 31.5546875 C129.71248706 34.29123479 127.20921265 37.14979366 124.7109375 40.0703125 C122.25426881 42.84107582 119.60640023 45.402929 116.96875 48 C115.06013545 49.93891002 113.27289448 51.93699551 111.5 54 C108.48237647 57.51141648 105.26640919 60.75307402 101.96875 64 C99.45339354 66.55528276 97.13810337 69.25603616 94.8046875 71.9765625 C92.20025166 74.89668754 89.41047626 77.61378555 86.6015625 80.3359375 C84.91371276 81.92422733 84.91371276 81.92422733 84 84 C83.34 84 82.68 84 82 84 C81.68095703 84.81404297 81.68095703 84.81404297 81.35546875 85.64453125 C79.51405929 88.84444452 76.95997145 91.16294109 74.3125 93.6875 C69.3975375 98.47257761 65.00655118 103.41340047 61 109 C61.66 109 62.32 109 63 109 C64.45402342 110.6376272 65.83848678 112.33734196 67.1875 114.0625 C69.83367134 117.37548964 72.43739044 120.56649342 75.5 123.5 C78.30525702 126.20896674 80.74629532 129.08335539 83.1875 132.125 C87.63234394 137.64876333 92.38218412 142.81960572 97.21484375 148 C99.97346339 150.95876022 102.64611326 153.98395085 105.29296875 157.04296875 C107.33633431 159.3855915 109.41680859 161.69273422 111.5 164 C114.77072923 167.62432158 118.0016922 171.27883178 121.20703125 174.9609375 C123.17841043 177.20289813 125.18162691 179.41385803 127.1875 181.625 C130.78450277 185.60543961 134.27901401 189.66036646 137.75 193.75 C142.58620409 199.44370932 147.59130545 204.95381894 152.72363281 210.38183594 C155.33036071 213.14832577 157.80425206 215.88492507 160 219 C159.67 219.66 159.34 220.32 159 221 C154.74992247 221.02495303 150.49988519 221.0429783 146.24975586 221.05493164 C144.807691 221.05992148 143.36563109 221.06671573 141.92358398 221.07543945 C120.60144159 221.20108119 120.60144159 221.20108119 116.46875 218.1015625 C115.49421875 216.87566406 115.49421875 216.87566406 114.5 215.625 C113.7575 214.72007812 113.015 213.81515625 112.25 212.8828125 C111.5075 211.93148437 110.765 210.98015625 110 210 C108.50254971 208.1645835 107.00255549 206.3312395 105.5 204.5 C104.7575 203.5821875 104.015 202.664375 103.25 201.71875 C100.35524289 198.22091849 97.30410461 194.88214596 94.24609375 191.52734375 C91.15978445 188.05457486 88.26716824 184.43648782 85.3515625 180.8203125 C82.00735673 176.80948764 78.45229849 173.01408226 74.87109375 169.21484375 C73 167 73 167 73 165 C72.34 165 71.68 165 71 165 C68.64757676 162.28426816 66.48549599 159.44443796 64.2890625 156.6015625 C62.20690216 154.23514819 60.8974239 153.09811043 58 152 C58 151.01 58 150.02 58 149 C56.31114599 146.7944317 56.31114599 146.7944317 54.0625 144.5 C49.84699728 139.9653425 45.91079139 135.2783295 42.04296875 130.4453125 C40.04380562 127.97774361 40.04380562 127.97774361 37.80078125 125.8046875 C36 124 36 124 35 122 C34.17154567 132.83540272 33.8703241 143.58253777 33.92483521 154.44622421 C33.93784155 157.06084754 33.94417276 159.67541901 33.94897461 162.29006958 C33.96025952 167.81840363 33.97957197 173.34669321 34 178.875 C34.02364509 185.33623041 34.04395358 191.79743794 34.05593872 198.25870132 C34.06241823 200.83468087 34.07491105 203.41058663 34.08764648 205.98654175 C34.0912757 207.55206234 34.09462784 209.1175836 34.09765625 210.68310547 C34.10282257 211.39883728 34.10798889 212.11456909 34.11331177 212.85198975 C34.11384314 217.77231371 34.11384314 217.77231371 33 220 C22.11 220 11.22 220 0 220 C0 147.4 0 74.8 0 0 Z " fill="#131219" transform="translate(399,83)"/>
<path d="M0 0 C5.88202819 4.63401525 11.80048729 10.0349368 15.24609375 16.76953125 C15.2109375 18.69140625 15.2109375 18.69140625 14.24609375 20.76953125 C11.5859375 22.734375 11.5859375 22.734375 8.18359375 24.70703125 C7.00117631 25.40343233 5.81888453 26.1000468 4.63671875 26.796875 C3.5178125 27.44785156 2.39890625 28.09882813 1.24609375 28.76953125 C-0.36275901 29.76197445 -1.96794759 30.76043235 -3.56640625 31.76953125 C-5.14421875 32.75953125 -5.14421875 32.75953125 -6.75390625 33.76953125 C-7.09421875 33.17785156 -7.43453125 32.58617187 -7.78515625 31.9765625 C-12.13154946 24.89055443 -16.69163025 20.76505536 -24.75390625 18.45703125 C-33.27920267 16.75197197 -39.94893246 17.96130732 -47.75390625 21.76953125 C-51.78633927 25.1135001 -52.79410123 29.17672519 -53.625 34.20703125 C-53.83106413 38.30333641 -52.91960921 41.30751147 -50.75390625 44.76953125 C-43.95233357 52.26870113 -32.7350632 54.84779399 -23.41796875 58.05273438 C-7.66767621 63.48755754 7.86833582 69.17842262 16.18359375 84.76953125 C21.55355143 96.82416038 21.79412813 109.27876445 17.5078125 121.76171875 C12.38529171 133.97330082 3.60274365 141.66173373 -8.31640625 146.89453125 C-20.22039814 151.6007606 -32.13265118 152.08375337 -44.75390625 151.76953125 C-44.75390625 151.10953125 -44.75390625 150.44953125 -44.75390625 149.76953125 C-45.86765625 149.68703125 -46.98140625 149.60453125 -48.12890625 149.51953125 C-61.16378326 147.80140159 -71.80557563 139.8148418 -80.08984375 129.9453125 C-82.36867354 126.96571581 -84.1829689 124.18461244 -85.75390625 120.76953125 C-84.33459732 116.51160445 -81.18068363 115.09911288 -77.56640625 112.76953125 C-76.90576172 112.33125 -76.24511719 111.89296875 -75.56445312 111.44140625 C-71.74119129 108.93533926 -67.89498783 106.72736764 -63.75390625 104.76953125 C-63.63015625 105.40890625 -63.50640625 106.04828125 -63.37890625 106.70703125 C-63.17265625 107.38765625 -62.96640625 108.06828125 -62.75390625 108.76953125 C-62.09390625 109.09953125 -61.43390625 109.42953125 -60.75390625 109.76953125 C-59.89706354 110.98242684 -59.06779527 112.21490412 -58.25390625 113.45703125 C-53.00133903 120.59283598 -45.38141877 124.40008482 -36.75390625 125.76953125 C-28.3356234 126.76725366 -20.94735761 124.30307478 -13.75390625 119.95703125 C-8.89630155 114.64402611 -8.20878582 108.68683775 -7.75390625 101.76953125 C-8.41390625 101.43953125 -9.07390625 101.10953125 -9.75390625 100.76953125 C-10.09733074 99.43876136 -10.43010499 98.10521146 -10.75390625 96.76953125 C-11.41390625 96.10953125 -12.07390625 95.44953125 -12.75390625 94.76953125 C-13.96046875 93.47015625 -13.96046875 93.47015625 -15.19140625 92.14453125 C-17.53831203 89.42964892 -17.53831203 89.42964892 -20.75390625 89.76953125 C-21.08390625 89.10953125 -21.41390625 88.44953125 -21.75390625 87.76953125 C-23.97462429 86.89561038 -26.15883006 86.133964 -28.4296875 85.4140625 C-29.83018646 84.95149974 -31.23057321 84.48859716 -32.63085938 84.02539062 C-34.82951571 83.30755616 -37.02935311 82.59391717 -39.23168945 81.88745117 C-53.86759842 77.17011966 -69.11885553 71.29185523 -77.12890625 57.33203125 C-82.38459989 46.77779864 -83.68159615 35.07421569 -80.69140625 23.51953125 C-76.49286129 11.81803094 -68.82955073 3.63755977 -58.12890625 -2.48046875 C-39.97274689 -10.68002459 -17.00228548 -11.32529977 0 0 Z " fill="#131219" transform="translate(836.75390625,157.23046875)"/>
<path d="M0 0 C9.9 0 19.8 0 30 0 C30 17.49 30 34.98 30 53 C41.88 53 53.76 53 66 53 C66 61.25 66 69.5 66 78 C54.12 78 42.24 78 30 78 C30.08561633 89.5964878 30.17942612 101.19283074 30.28752708 112.78913116 C30.3374018 118.17417338 30.38373257 123.55919682 30.421875 128.94433594 C30.45883932 134.14452392 30.50522938 139.34455134 30.55806351 144.54460144 C30.5765483 146.52521438 30.59167792 148.50586165 30.60334396 150.48652649 C30.6203079 153.26787643 30.64936694 156.04886337 30.68115234 158.83007812 C30.68331253 159.64288239 30.68547272 160.45568665 30.68769836 161.29312134 C30.77451402 167.26777678 31.10078875 173.42249901 34.75 178.375 C39.90752305 182.09987776 44.24078642 182.15874231 50.33984375 181.484375 C53.61089485 180.88876511 56.80309172 179.91340237 60 179 C60 186.92 60 194.84 60 203 C46.30444362 208.47822255 35.11091428 209.90126994 21 205 C14.55496765 202.09643594 10.31287991 197.49209771 6 192 C5.5076033 191.38876785 5.0152066 190.77753571 4.50788879 190.14778137 C-2.43477356 180.2589083 -0.37875109 165.71964013 -0.29296875 154.26953125 C-0.28736562 152.06565135 -0.28309891 149.86176768 -0.28010559 147.65788269 C-0.26871333 141.88916502 -0.23929496 136.12067803 -0.20599365 130.35205078 C-0.17517106 124.45283121 -0.16157431 118.55357396 -0.14648438 112.65429688 C-0.11441947 101.10274752 -0.0616979 89.55142913 0 78 C-7.92 78 -15.84 78 -24 78 C-24 69.09 -24 60.18 -24 51 C-23.34 51.33 -22.68 51.66 -22 52 C-14.74 52.33 -7.48 52.66 0 53 C0 35.51 0 18.02 0 0 Z " fill="#121219" transform="translate(886,100)"/>
<path d="M0 0 C2.90436468 0.51500075 5.75095468 1.09824799 8.625 1.75 C9.42035156 1.92015625 10.21570313 2.0903125 11.03515625 2.265625 C15.98780077 3.37163429 20.40037798 4.85433182 25 7 C24.37165495 10.79111532 23.26471197 14.00780452 21.71484375 17.51953125 C21.04291992 19.0519043 21.04291992 19.0519043 20.35742188 20.61523438 C19.88884766 21.67033203 19.42027344 22.72542969 18.9375 23.8125 C18.46505859 24.88693359 17.99261719 25.96136719 17.50585938 27.06835938 C16.34167464 29.71423376 15.17292168 32.35798995 14 35 C9.62296385 35 8.57296849 34.2331053 5 32 C-1.44875054 29.77005823 -11.14752423 29.90496639 -17.65234375 31.75390625 C-19.58691412 32.70076891 -21.26447276 33.72934613 -23 35 C-23.886875 35.556875 -24.77375 36.11375 -25.6875 36.6875 C-37.98434073 48.98434073 -36.46030307 69.35846028 -36.51171875 85.46875 C-36.52860628 87.48613548 -36.54676183 89.5035107 -36.56611633 91.52087402 C-36.61318064 96.77480866 -36.64326974 102.0287017 -36.66955566 107.28277588 C-36.69958364 112.66646539 -36.74603626 118.05001207 -36.79101562 123.43359375 C-36.87655177 133.95566997 -36.94259313 144.47773269 -37 155 C-46.9 155 -56.8 155 -67 155 C-67 105.17 -67 55.34 -67 4 C-57.1 4 -47.2 4 -37 4 C-35.7937748 7.61867559 -35.89183082 10.92506251 -35.9375 14.6875 C-35.94201172 15.38939453 -35.94652344 16.09128906 -35.95117188 16.81445312 C-35.96293073 18.54300538 -35.98086546 20.27151365 -36 22 C-35.53851562 21.35933594 -35.07703125 20.71867187 -34.6015625 20.05859375 C-26.8940328 9.83773915 -18.57703257 3.76924908 -5.8515625 1.640625 C-4.23582165 1.41639974 -2.61809342 1.20656512 -1 1 C-0.67 0.67 -0.34 0.34 0 0 Z " fill="#13121A" transform="translate(649,149)"/>
<path d="M0 0 C0.24609566 2.57308388 0.24609566 2.57308388 0.24050903 5.89712524 C0.24325836 7.15358353 0.24600769 8.41004181 0.24884033 9.70457458 C0.24176157 11.10464572 0.23449194 12.5047159 0.22705078 13.90478516 C0.22648689 15.37304171 0.2268028 16.84129883 0.22793579 18.30955505 C0.22851116 22.30315999 0.21672721 26.29664553 0.20278788 30.29022264 C0.19031107 34.46092154 0.18911243 38.63162297 0.18673706 42.80233765 C0.1805133 50.70359983 0.1640904 58.60480688 0.14403808 66.50604475 C0.12170691 75.49986631 0.11069266 84.49369048 0.10064721 93.48753285 C0.07972492 111.99171987 0.04453159 130.49585551 0 149 C-4.08726876 149.7159336 -7.90219327 150.11906086 -12.0546875 150.09765625 C-13.16328125 150.09443359 -14.271875 150.09121094 -15.4140625 150.08789062 C-16.55617188 150.07951172 -17.69828125 150.07113281 -18.875 150.0625 C-20.0403125 150.05798828 -21.205625 150.05347656 -22.40625 150.04882812 C-25.27088645 150.03708781 -28.13541633 150.0206657 -31 150 C-31.76728705 114.3964007 -32.11070842 78.80155528 -32.12338257 43.18972778 C-32.12500499 40.17823974 -32.1285692 37.16675918 -32.13256836 34.15527344 C-32.13839643 29.38584701 -32.13866484 24.61645268 -32.13431931 19.84702492 C-32.13331965 18.06965973 -32.13391673 16.29229288 -32.13615799 14.51492882 C-32.13868644 12.07917393 -32.13493779 9.64351164 -32.12939453 7.20776367 C-32.13142128 6.48577034 -32.13344803 5.76377701 -32.13553619 5.01990509 C-32.11430409 0.11430409 -32.11430409 0.11430409 -31 -1 C-26.88927748 -1.35514828 -22.76737793 -1.46915825 -18.64428711 -1.61254883 C-16.57411 -1.687082 -14.50503839 -1.7777272 -12.43554688 -1.86914062 C-10.48938477 -1.9397168 -10.48938477 -1.9397168 -8.50390625 -2.01171875 C-6.70675171 -2.08072388 -6.70675171 -2.08072388 -4.87329102 -2.15112305 C-2 -2 -2 -2 0 0 Z " fill="#131219" transform="translate(724,154)"/>
<path d="M0 0 C10.43978529 7.82983896 20.73591434 15.74707644 30.8215332 24.02368164 C36.31718832 28.50678791 41.95200586 32.77954112 47.68481445 36.95458984 C51.45587468 39.72721327 54.77902569 42.60042481 58 46 C57.030625 46.78761719 56.06125 47.57523437 55.0625 48.38671875 C54.42296387 48.90637207 53.78342773 49.42602539 53.12451172 49.96142578 C51.68875839 51.12791349 50.2528828 52.29425074 48.81689453 53.46044922 C45.16418276 56.42723555 41.51310574 59.39596133 37.8671875 62.37109375 C30.92465908 68.03228871 23.95591591 73.65312312 16.89306641 79.16381836 C12.50423287 82.58889208 8.18268627 86.09079396 3.890625 89.63671875 C2 91 2 91 0 91 C0 60.97 0 30.94 0 0 Z " fill="#121118" transform="translate(97,215)"/>
<path d="M0 0 C4.04027685 2.25365902 7.46556094 4.97219583 10.9375 8 C15.53667501 11.95497369 20.20721461 15.78216313 25 19.5 C30.19412052 23.53243867 35.23432017 27.70630197 40.2175293 31.99584961 C44.90671393 35.99955282 49.81882805 39.63623792 54.83203125 43.22265625 C55.54746094 43.80917969 56.26289063 44.39570312 57 45 C57 45.66 57 46.32 57 47 C55.15625 48.48828125 55.15625 48.48828125 52.5 50.3125 C47.57101512 53.80518248 42.85726644 57.48094004 38.1875 61.3125 C32.54926401 65.93554669 26.86735684 70.48741644 21.10083008 74.94946289 C18.11693452 77.27541741 15.21514192 79.65939429 12.37890625 82.1640625 C11.79069092 82.6801709 11.20247559 83.1962793 10.59643555 83.72802734 C9.47466867 84.719815 8.36226523 85.72232714 7.26098633 86.73681641 C5.7421875 88.078125 5.7421875 88.078125 3 90 C0.82861328 89.62011719 0.82861328 89.62011719 -1 89 C-1.02313452 77.69115443 -1.04092077 66.38231447 -1.05181217 55.07345009 C-1.05703856 49.82272127 -1.06413181 44.57200859 -1.07543945 39.32128906 C-1.08627696 34.25738745 -1.09227868 29.1935014 -1.09487724 24.12958908 C-1.09672993 22.19422536 -1.10034756 20.25886252 -1.10573006 18.3235054 C-1.11295192 15.62011093 -1.11399045 12.91678141 -1.11352539 10.21337891 C-1.11712067 9.40705521 -1.12071594 8.60073151 -1.12442017 7.76997375 C-1.11405216 2.22810432 -1.11405216 2.22810432 0 0 Z " fill="#111017" transform="translate(97,76)"/>
<path d="M0 0 C5.16139124 3.09100266 8.55249285 6.67946146 10.82421875 12.3046875 C11.90168274 18.18176384 11.61340485 23.43637952 8.82421875 28.8046875 C5.02525044 34.1437781 1.08298675 37.57950489 -5.48828125 39.0546875 C-11.07675374 39.57213866 -15.56483845 38.65633833 -20.48828125 36.0546875 C-26.27371818 31.16920742 -28.97709988 26.31453225 -29.86328125 18.9296875 C-29.2410818 12.5002932 -26.5511068 7.06720024 -21.92578125 2.5546875 C-15.17892392 -1.5972247 -7.67446794 -2.91557495 0 0 Z " fill="#121219" transform="translate(716.48828125,78.9453125)"/>
<path d="M0 0 C9.9 0 19.8 0 30 0 C30 17.49 30 34.98 30 53 C41.88 53 53.76 53 66 53 C66 61.25 66 69.5 66 78 C54.12 78 42.24 78 30 78 C30 109.02 30 140.04 30 172 C29.34 172.33 28.68 172.66 28 173 C27.95371234 160.79575043 27.91814897 148.59152165 27.89637566 136.38720226 C27.88592694 130.72058708 27.87174787 125.05403185 27.84912109 119.38745117 C27.82743155 113.92154156 27.81543958 108.45568969 27.81024551 102.98974037 C27.80654276 100.90168664 27.79931247 98.81363615 27.78853989 96.72560692 C27.77407669 93.80682861 27.77201989 90.88829065 27.77294922 87.96948242 C27.76575867 87.10129883 27.75856812 86.23311523 27.75115967 85.33862305 C27.77189568 79.34215648 27.77189568 79.34215648 30 76 C32.62462244 75.73302112 35.01065933 75.65167016 37.6328125 75.70703125 C38.38464813 75.71127609 39.13648376 75.71552094 39.91110229 75.71989441 C42.31609685 75.7367083 44.72025809 75.77436376 47.125 75.8125 C48.75389416 75.82754341 50.38280144 75.84123242 52.01171875 75.85351562 C56.008393 75.88407124 60.00326216 75.94278265 64 76 C64 69.07 64 62.14 64 55 C62.515 55.495 62.515 55.495 61 56 C56.54845053 56.2049897 52.09460857 56.18580276 47.63891602 56.18530273 C45.44202482 56.18749548 43.24563092 56.20568202 41.04882812 56.22460938 C39.65625172 56.22754229 38.26367293 56.22952777 36.87109375 56.23046875 C34.96734985 56.23663208 34.96734985 56.23663208 33.02514648 56.24291992 C30 56 30 56 28 54 C27.75949097 51.78536987 27.75949097 51.78536987 27.77294922 48.99951172 C27.77310028 47.95858368 27.77325134 46.91765564 27.77340698 45.84518433 C27.78889084 44.1545134 27.78889084 44.1545134 27.8046875 42.4296875 C27.8075174 41.27832306 27.81034729 40.12695862 27.81326294 38.94070435 C27.82448592 35.25203188 27.84959444 31.56359947 27.875 27.875 C27.88502706 25.37890975 27.89415338 22.8828157 27.90234375 20.38671875 C27.92273322 14.25764491 27.96187849 8.12909215 28 2 C19.42 2 10.84 2 2 2 C2 19.49 2 36.98 2 55 C-5.875 56.125 -5.875 56.125 -9.40234375 56.09765625 C-10.07515381 56.09515869 -10.74796387 56.09266113 -11.44116211 56.09008789 C-12.26495361 56.08098389 -13.08874512 56.07187988 -13.9375 56.0625 C-16.598125 56.041875 -19.25875 56.02125 -22 56 C-22 62.6 -22 69.2 -22 76 C-14.08 76 -6.16 76 2 76 C2.33 109.66 2.66 143.32 3 178 C2.01 177.67 1.02 177.34 0 177 C0 144.33 0 111.66 0 78 C-7.92 78 -15.84 78 -24 78 C-24 69.09 -24 60.18 -24 51 C-23.34 51.33 -22.68 51.66 -22 52 C-14.74 52.33 -7.48 52.66 0 53 C0 35.51 0 18.02 0 0 Z " fill="#0B0A0D" transform="translate(886,100)"/>
<path d="M0 0 C0.24609566 2.57308388 0.24609566 2.57308388 0.24050903 5.89712524 C0.24325836 7.15358353 0.24600769 8.41004181 0.24884033 9.70457458 C0.24176157 11.10464572 0.23449194 12.5047159 0.22705078 13.90478516 C0.22648689 15.37304171 0.2268028 16.84129883 0.22793579 18.30955505 C0.22851116 22.30315999 0.21672721 26.29664553 0.20278788 30.29022264 C0.19031107 34.46092154 0.18911243 38.63162297 0.18673706 42.80233765 C0.1805133 50.70359983 0.1640904 58.60480688 0.14403808 66.50604475 C0.12170691 75.49986631 0.11069266 84.49369048 0.10064721 93.48753285 C0.07972492 111.99171987 0.04453159 130.49585551 0 149 C-1.65 149 -3.3 149 -5 149 C-4.67 148.34 -4.34 147.68 -4 147 C-3.90626912 145.09945234 -3.87809083 143.19555093 -3.87974548 141.29269409 C-3.87837082 140.07830658 -3.87699615 138.86391907 -3.87557983 137.61273193 C-3.8791192 136.25988745 -3.88275401 134.90704322 -3.88647461 133.55419922 C-3.88675656 132.13520306 -3.88659859 130.71620676 -3.8860321 129.29721069 C-3.88574445 125.43793537 -3.89163609 121.57869094 -3.89860606 117.71942282 C-3.90484484 113.68885548 -3.90544382 109.65828748 -3.90663147 105.62771606 C-3.90974323 97.99209327 -3.91795454 90.35648474 -3.92798096 82.72086823 C-3.93914689 74.02933259 -3.94465376 65.33779628 -3.94967639 56.64625525 C-3.96013728 38.76416185 -3.97793447 20.88208259 -4 3 C-11.92 3 -19.84 3 -28 3 C-28.00808685 4.77454559 -28.01617371 6.54909119 -28.02450562 8.37741089 C-28.10184244 25.06496362 -28.18943065 41.75243442 -28.28752708 58.43987846 C-28.33769983 67.01995934 -28.3841421 75.60003044 -28.421875 84.18017578 C-28.45476323 91.65655078 -28.49457669 99.13285091 -28.54279006 106.60914338 C-28.56808672 110.56966539 -28.58985851 114.53013753 -28.60334396 118.49071884 C-28.61613577 122.21549396 -28.63815853 125.94009833 -28.66738319 129.66477966 C-28.67648163 131.03459456 -28.68215446 132.40443698 -28.68421364 133.77428055 C-28.68752007 135.63909952 -28.70414424 137.50388094 -28.7215271 139.36862183 C-28.72705786 140.41393507 -28.73258862 141.45924831 -28.73828697 142.53623772 C-29 145 -29 145 -31 147 C-31.79579683 112.46088211 -32.11111521 77.93269136 -32.12338257 43.38500977 C-32.12500507 40.36555665 -32.12856969 37.34611099 -32.13256836 34.32666016 C-32.13840013 29.53954692 -32.1386619 24.75246567 -32.13431931 19.9653511 C-32.13331938 18.17897178 -32.13391734 16.39259081 -32.13615799 14.60621262 C-32.13868708 12.15589915 -32.13493628 9.70567769 -32.12939453 7.25537109 C-32.13142128 6.52867218 -32.13344803 5.80197327 -32.13553619 5.05325317 C-32.11430117 0.11430117 -32.11430117 0.11430117 -31 -1 C-26.88927748 -1.35514828 -22.76737793 -1.46915825 -18.64428711 -1.61254883 C-16.57411 -1.687082 -14.50503839 -1.7777272 -12.43554688 -1.86914062 C-10.48938477 -1.9397168 -10.48938477 -1.9397168 -8.50390625 -2.01171875 C-6.70675171 -2.08072388 -6.70675171 -2.08072388 -4.87329102 -2.15112305 C-2 -2 -2 -2 0 0 Z " fill="#040304" transform="translate(724,154)"/>
<path d="M0 0 C9.9 0 19.8 0 30 0 C30 0.33 30 0.66 30 1 C20.76 1 11.52 1 2 1 C2 72.28 2 143.56 2 217 C10.91 217 19.82 217 29 217 C20.93774225 222.3748385 9.6896279 219 0 219 C0 146.73 0 74.46 0 0 Z " fill="#030304" transform="translate(400,84)"/>
<path d="M0 0 C4.18176914 1.59920387 6.76733986 4.68872849 9.6875 7.9375 C10.21859375 8.52015625 10.7496875 9.1028125 11.296875 9.703125 C15.24306587 14.06770719 18.9647024 18.58785663 22.6484375 23.17578125 C26.33674384 27.60542492 30.28382046 31.78652307 34.21484375 36 C36.97346339 38.95876022 39.64611326 41.98395085 42.29296875 45.04296875 C44.33633431 47.3855915 46.41680859 49.69273422 48.5 52 C51.77072923 55.62432158 55.0016922 59.27883178 58.20703125 62.9609375 C60.17841043 65.20289813 62.18162691 67.41385803 64.1875 69.625 C67.78450277 73.60543961 71.27901401 77.66036646 74.75 81.75 C79.58620409 87.44370932 84.59130545 92.95381894 89.72363281 98.38183594 C92.33036071 101.14832577 94.80425206 103.88492507 97 107 C96.67 107.66 96.34 108.32 96 109 C91.74992247 109.02495303 87.49988519 109.0429783 83.24975586 109.05493164 C81.807691 109.05992148 80.36563109 109.06671573 78.92358398 109.07543945 C57.61014567 109.2010299 57.61014567 109.2010299 53.37109375 106.0390625 C52.73300781 105.24242187 52.09492187 104.44578125 51.4375 103.625 C50.77621094 102.83351563 50.11492188 102.04203125 49.43359375 101.2265625 C48 99 48 99 48 96 C48.66 96 49.32 96 50 96 C50.83763319 97.47616755 51.67159182 98.95442077 52.50390625 100.43359375 C55.15473033 103.94076391 56.4944491 104.89019796 60.85107422 105.83642578 C65.54503893 106.22183958 70.23278119 106.14622052 74.9375 106.0625 C76.59180951 106.06557763 78.24611674 106.07269966 79.90039062 106.08398438 C83.93507361 106.10274554 87.96585568 106.06636255 92 106 C92 105.34 92 104.68 92 104 C90.515 103.505 90.515 103.505 89 103 C86 99.55555556 86 99.55555556 86 97 C85.40058594 96.74863281 84.80117188 96.49726563 84.18359375 96.23828125 C81.70637847 94.83349191 80.67039712 93.51694652 79.0625 91.1875 C76.67084766 87.74325415 73.99133594 84.93976118 71 82 C63.52469029 74.24369069 56.29263036 66.29148972 49.33642578 58.06738281 C46.08247143 54.22960839 42.73862633 50.49700961 39.3125 46.8125 C34.9571987 42.11053941 30.87430129 37.28382202 26.875 32.27734375 C25.09705526 30.02840874 25.09705526 30.02840874 23.25 28.31640625 C22 27 22 27 22 25 C21.34 25 20.68 25 20 25 C18.50370821 23.3214487 17.07707339 21.58041102 15.6875 19.8125 C13.29902741 16.7833166 10.9640178 13.96472235 8.20703125 11.26171875 C6 9 6 9 6 7 C5.01 6.67 4.02 6.34 3 6 C0 2.55555556 0 2.55555556 0 0 Z " fill="#0B0A0D" transform="translate(462,195)"/>
<path d="M0 0 C5.24793216 4.28402625 9.67385058 8.79608113 14 14 C14.73605469 14.88300781 15.47210938 15.76601562 16.23046875 16.67578125 C20.63590161 22.01100397 24.91792856 27.41316498 29 33 C26 33 26 33 24.0546875 31.19921875 C23.33539063 30.37035156 22.61609375 29.54148438 21.875 28.6875 C21.08480469 27.78128906 20.29460937 26.87507813 19.48046875 25.94140625 C16.28327366 22.15008671 13.14178311 18.31741933 10.04296875 14.4453125 C8.04380562 11.97774361 8.04380562 11.97774361 5.80078125 9.8046875 C4 8 4 8 3 6 C2.17154567 16.83540272 1.8703241 27.58253777 1.92483521 38.44622421 C1.93784155 41.06084754 1.94417276 43.67541901 1.94897461 46.29006958 C1.96025952 51.81840363 1.97957197 57.34669321 2 62.875 C2.02364509 69.33623041 2.04395358 75.79743794 2.05593872 82.25870132 C2.06241823 84.83468087 2.07491105 87.41058663 2.08764648 89.98654175 C2.0912757 91.55206234 2.09462784 93.1175836 2.09765625 94.68310547 C2.10282257 95.39883728 2.10798889 96.11456909 2.11331177 96.85198975 C2.11384314 101.77231371 2.11384314 101.77231371 1 104 C-0.98 104 -2.96 104 -5 104 C-3.515 103.01 -3.515 103.01 -2 102 C-1.68943347 98.84777993 -1.57311367 95.88876592 -1.58349609 92.73266602 C-1.57491074 91.77158936 -1.56632538 90.8105127 -1.55747986 89.8203125 C-1.53230958 86.63143703 -1.52803086 83.44287217 -1.5234375 80.25390625 C-1.5091363 78.04433737 -1.4933809 75.83477746 -1.47622681 73.62522888 C-1.43427367 67.7984699 -1.40934472 61.97176646 -1.38873291 56.14489746 C-1.35298939 46.82076281 -1.29199794 37.49676543 -1.23024368 28.17277336 C-1.21111634 24.90941781 -1.19941091 21.64609882 -1.18881226 18.38270569 C-1.17860169 16.38737916 -1.1682439 14.39205339 -1.15771484 12.39672852 C-1.15667252 11.48493332 -1.15563019 10.57313812 -1.15455627 9.63371277 C-1.14637627 8.38236038 -1.14637627 8.38236038 -1.13803101 7.10572815 C-1.13547491 6.38103112 -1.13291882 5.6563341 -1.13028526 4.90967655 C-1 3 -1 3 0 0 Z " fill="#0D0D0F" transform="translate(431,199)"/>
<path d="M0 0 C1.33572052 0.01078583 1.33572052 0.01078583 2.69842529 0.02178955 C3.63506012 0.0214975 4.57169495 0.02120544 5.53671265 0.02090454 C8.64263063 0.02230149 11.74831077 0.03787984 14.85418701 0.05352783 C17.00367095 0.05725666 19.15315658 0.06010425 21.30264282 0.06210327 C26.96786163 0.06974994 32.63297835 0.0894073 38.29815674 0.11151123 C44.07593403 0.13194742 49.85372777 0.14110022 55.63153076 0.15118408 C66.9740236 0.17265221 78.31644058 0.2068006 89.65887451 0.24884033 C81.96229677 8.01384999 73.43676961 14.73759766 64.74041748 21.34381104 C61.70611808 23.65408812 58.71002553 26.00171052 55.74871826 28.40509033 C55.08847656 28.9402124 54.42823486 29.47533447 53.74798584 30.02667236 C52.47742913 31.05985844 51.21010504 32.09703812 49.94671631 33.13897705 C46.04019429 36.31198807 42.09001394 38.85761164 37.65887451 41.24884033 C37.32887451 40.58884033 36.99887451 39.92884033 36.65887451 39.24884033 C37.97891564 38.23342408 39.29896993 37.21802492 40.61907959 36.20269775 C41.78970671 35.3021008 42.96010997 34.40121279 44.13031006 33.50006104 C47.03326549 31.26514489 49.93846694 29.0334914 52.85418701 26.81524658 C59.07183322 22.07020079 65.20716728 17.23593514 71.28387451 12.31134033 C72.31508423 11.47735718 72.31508423 11.47735718 73.36712646 10.62652588 C74.01254395 10.10099121 74.65796143 9.57545654 75.32293701 9.03399658 C75.89479736 8.56872559 76.46665771 8.10345459 77.05584717 7.62408447 C78.67370058 6.23612099 80.15985603 4.76310423 81.65887451 3.24884033 C70.79300654 3.2024946 59.92716209 3.1669597 49.0612154 3.14521599 C44.0156893 3.13477997 38.97023083 3.12062401 33.92474365 3.09796143 C29.05533877 3.07622668 24.18599895 3.06427033 19.3165493 3.05908585 C17.45901656 3.05539124 15.60148736 3.04817662 13.74398232 3.03738022 C11.141723 3.02285697 8.53973231 3.02086275 5.93743896 3.02178955 C5.16995331 3.014599 4.40246765 3.00740845 3.61172485 3 C-2.62519796 3.02402726 -6.54119216 4.33778355 -11.34112549 8.24884033 C-12.00112549 7.91884033 -12.66112549 7.58884033 -13.34112549 7.24884033 C-6.11302117 0.02073601 -6.11302117 0.02073601 0 0 Z " fill="#100F13" transform="translate(262.34112548828125,66.75115966796875)"/>
<path d="M0 0 C4.13610925 0.57084317 6.97653503 2.96246186 10.1875 5.4375 C10.73341797 5.84548828 11.27933594 6.25347656 11.84179688 6.67382812 C15.86489292 9.72978584 15.86489292 9.72978584 17 12 C-11.38 12 -39.76 12 -69 12 C-69 11.01 -69 10.02 -69 9 C-43.59 9 -18.18 9 8 9 C3.55566238 4.22880216 3.55566238 4.22880216 0 2 C0 1.34 0 0.68 0 0 Z " fill="#0C0B0F" transform="translate(336,313)"/>
<path d="M0 0 C3.39592437 0.6077717 5.38646483 1.85504695 8.0625 4 C10.49603602 5.9430921 12.00385831 7.0012861 15 8 C16.1726765 9.16425513 17.34160227 10.33264716 18.48681641 11.52392578 C21.48076876 14.44445433 24.87040696 16.89887918 28.1875 19.4375 C29.80606155 20.68610463 31.42454908 21.93480522 33.04296875 23.18359375 C33.86716309 23.81765137 34.69135742 24.45170898 35.54052734 25.10498047 C39.37098237 28.0563396 43.18506241 31.02862947 47 34 C48.4881934 35.15766503 49.97647507 36.31521659 51.46484375 37.47265625 C69.81640625 51.74609375 69.81640625 51.74609375 71.87158203 53.34716797 C73.38488339 54.52232858 74.90188233 55.69273438 76.42138672 56.85986328 C77.21947754 57.47458496 78.01756836 58.08930664 78.83984375 58.72265625 C79.56421631 59.27832275 80.28858887 59.83398926 81.03491211 60.40649414 C82.81379683 61.84900632 84.41764173 63.34723161 86 65 C82.25939389 64.45793014 80.01102388 63.58329645 77.06640625 61.2265625 C76.34251709 60.65478271 75.61862793 60.08300293 74.87280273 59.49389648 C74.11040283 58.87716064 73.34800293 58.2604248 72.5625 57.625 C71.76336182 56.99086182 70.96422363 56.35672363 70.14086914 55.70336914 C68.51581283 54.41315522 66.89363381 53.11930862 65.27441406 51.82177734 C62.17723434 49.34097495 59.05883369 46.88778585 55.9375 44.4375 C55.38102783 43.99913818 54.82455566 43.56077637 54.2512207 43.10913086 C49.07566364 39.03865915 43.84253012 35.04502154 38.60620117 31.05322266 C32.53697627 26.4222189 26.50565232 21.7438298 20.48754883 17.04663086 C17.00971505 14.33365254 13.52570199 11.63089711 10.01171875 8.96484375 C9.1005127 8.27201294 9.1005127 8.27201294 8.17089844 7.56518555 C6.55247511 6.33723534 4.93066141 5.11375717 3.30859375 3.890625 C1 2 1 2 0 0 Z " fill="#0C0B0E" transform="translate(134,221)"/>
<path d="M0 0 C8.91 0 17.82 0 27 0 C26.34 0.66 25.68 1.32 25 2 C17.08 2 9.16 2 1 2 C1 49.85 1 97.7 1 147 C6.28 147 11.56 147 17 147 C17 147.66 17 148.32 17 149 C15.66853485 149.20033619 14.33462147 149.38440017 13 149.5625 C12.2575 149.66691406 11.515 149.77132812 10.75 149.87890625 C8 150 8 150 0 149 C0 99.83 0 50.66 0 0 Z " fill="#020204" transform="translate(583,154)"/>
<path d="M0 0 C-1.52819545 4.1643326 -4.54389602 6.22485968 -8 8.75 C-9.18940956 9.64111683 -10.37820644 10.53305199 -11.56640625 11.42578125 C-12.15309082 11.8635791 -12.73977539 12.30137695 -13.34423828 12.75244141 C-15.57871735 14.4360433 -17.76036579 16.18057805 -19.9375 17.9375 C-24.52909771 21.6331762 -29.15905587 25.27775722 -33.80151367 28.90917969 C-38.28836976 32.42368837 -42.71532758 36.00653719 -47.109375 39.63671875 C-49 41 -49 41 -51 41 C-46.43093687 45.87366734 -41.25514283 49.89199749 -36 54 C-35.12601563 54.68320313 -34.25203125 55.36640625 -33.3515625 56.0703125 C-31.23745997 57.71757851 -29.12049227 59.36097216 -27 61 C-27.66 61.66 -28.32 62.32 -29 63 C-30.18142578 62.09121094 -30.18142578 62.09121094 -31.38671875 61.1640625 C-31.9072583 60.76380859 -32.42779785 60.36355469 -32.96411133 59.95117188 C-34.1221291 59.06006088 -35.27950919 58.16812065 -36.4362793 57.27539062 C-39.52909409 54.89044868 -42.63157106 52.52068776 -45.7578125 50.1796875 C-46.35376221 49.73028809 -46.94971191 49.28088867 -47.5637207 48.81787109 C-48.71730257 47.94853773 -49.87463315 47.08415366 -51.03588867 46.22509766 C-52.39416409 45.19708855 -53.70276178 44.10403253 -55 43 C-55 42.34 -55 41.68 -55 41 C-53.50390625 39.78125 -53.50390625 39.78125 -51.5625 38.5 C-48.77468153 36.7134637 -48.77468153 36.7134637 -47 34 C-45.3315511 33.05742105 -43.66169981 32.11721403 -41.98388672 31.19140625 C-38.56814303 29.14011051 -35.60612493 26.55838721 -32.5625 24 C-26.3093915 18.82521712 -19.93678311 13.86411016 -13.40454102 9.046875 C-10.40741058 6.83121569 -7.48869203 4.58956667 -4.6640625 2.15625 C-2 0 -2 0 0 0 Z " fill="#0C0B0E" transform="translate(239,155)"/>
<path d="M0 0 C0.33 0 0.66 0 1 0 C1 31.68 1 63.36 1 96 C-2.63 95.67 -6.26 95.34 -10 95 C-10 94.34 -10 93.68 -10 93 C-7.03 93 -4.06 93 -1 93 C-1.00222061 91.8496376 -1.00444122 90.69927521 -1.00672913 89.51405334 C-1.02695922 78.69799941 -1.0419715 67.8819493 -1.05181217 57.06588078 C-1.05704134 51.50460589 -1.06413958 45.94334621 -1.07543945 40.38208008 C-1.08626715 35.01992581 -1.09227658 29.65778622 -1.09487724 24.29562187 C-1.09673171 22.24499722 -1.10035272 20.1943734 -1.10573006 18.14375496 C-1.11293893 15.28209797 -1.11399101 12.42050243 -1.11352539 9.55883789 C-1.11712067 8.70216522 -1.12071594 7.84549255 -1.12442017 6.96286011 C-1.11405216 1.11405216 -1.11405216 1.11405216 0 0 Z " fill="#030304" transform="translate(611,208)"/>
<path d="M0 0 C0.24609566 2.57308388 0.24609566 2.57308388 0.24050903 5.89712524 C0.24325836 7.15358353 0.24600769 8.41004181 0.24884033 9.70457458 C0.24176157 11.10464572 0.23449194 12.5047159 0.22705078 13.90478516 C0.22648689 15.37304171 0.2268028 16.84129883 0.22793579 18.30955505 C0.22851116 22.30315999 0.21672721 26.29664553 0.20278788 30.29022264 C0.19031107 34.46092154 0.18911243 38.63162297 0.18673706 42.80233765 C0.1805133 50.70359983 0.1640904 58.60480688 0.14403808 66.50604475 C0.12170691 75.49986631 0.11069266 84.49369048 0.10064721 93.48753285 C0.07972492 111.99171987 0.04453159 130.49585551 0 149 C-0.66 149 -1.32 149 -2 149 C-2 99.83 -2 50.66 -2 0 C-11.9 0.33 -21.8 0.66 -32 1 C-31.67 0.34 -31.34 -0.32 -31 -1 C-26.90707083 -1.19222407 -22.81379909 -1.3709507 -18.71972656 -1.53710938 C-17.32666167 -1.59555965 -15.9337472 -1.65771628 -14.54101562 -1.72363281 C-12.54079773 -1.81766015 -10.53992068 -1.89732059 -8.5390625 -1.9765625 C-7.33459473 -2.02893066 -6.13012695 -2.08129883 -4.88916016 -2.13525391 C-2 -2 -2 -2 0 0 Z " fill="#151418" transform="translate(724,154)"/>
<path d="M0 0 C5.53305026 0.32483661 8.94853996 3.77859658 13.0625 7.125 C14.67704796 8.41053572 16.29298369 9.69433003 17.91015625 10.9765625 C18.74691895 11.64204102 19.58368164 12.30751953 20.44580078 12.99316406 C24.57459016 16.23715648 28.78689492 19.36679867 33 22.5 C42.43539312 29.53701882 51.73883071 36.73570682 61 44 C60.34 44.66 59.68 45.32 59 46 C49.54965682 38.97018068 40.1745142 31.86099655 30.94189453 24.54638672 C30.22372559 23.98193848 29.50555664 23.41749023 28.765625 22.8359375 C28.13430664 22.33626465 27.50298828 21.8365918 26.85253906 21.32177734 C25.0228482 19.9419829 25.0228482 19.9419829 22.90527344 18.96337891 C20.07962216 17.53462187 18.23461303 15.23461303 16 13 C13.39217789 10.91935054 10.69732585 8.96258809 8 7 C6.49744111 5.89931802 4.99734219 4.7952682 3.5 3.6875 C2.8296875 3.19636719 2.159375 2.70523437 1.46875 2.19921875 C0.9840625 1.80347656 0.499375 1.40773438 0 1 C0 0.67 0 0.34 0 0 Z " fill="#0C0B0E" transform="translate(275,267)"/>
<path d="M0 0 C0 3.9630046 -1.27346349 4.75603761 -3.9375 7.625 C-4.75863281 8.511875 -5.57976563 9.39875 -6.42578125 10.3125 C-9.52357676 13.54661731 -12.69037464 16.70333305 -15.87890625 19.84765625 C-18.46674743 22.473624 -20.85516636 25.23754968 -23.25390625 28.03515625 C-25.7235936 30.81424514 -28.37903322 33.38860496 -31.02734375 35.99609375 C-32.9574563 37.95678234 -34.76734898 39.97819714 -36.5625 42.0625 C-43.33100602 49.90216867 -43.33100602 49.90216867 -47 53 C-47.66 53 -48.32 53 -49 53 C-47.64768813 49.97022571 -46.14519457 47.91527387 -43.76953125 45.609375 C-43.13474854 44.98619385 -42.49996582 44.3630127 -41.84594727 43.72094727 C-40.83939087 42.74532837 -40.83939087 42.74532837 -39.8125 41.75 C-35.20389054 37.21964072 -30.70757674 32.69464969 -26.53515625 27.75390625 C-24.15263902 25.03189547 -21.54917163 22.54070656 -18.97265625 20.00390625 C-16.43249677 17.42350662 -14.09086893 14.6970227 -11.73046875 11.953125 C-8.96060188 8.82686443 -5.98516788 5.91866661 -3 3 C-1.99885255 2.00114876 -0.99849511 1.00150263 0 0 Z " fill="#0B0A0D" transform="translate(547,95)"/>
<path d="M0 0 C1.19434158 0.00212242 1.19434158 0.00212242 2.41281128 0.00428772 C4.9601413 0.0098928 7.50738397 0.02244611 10.0546875 0.03515625 C11.77994665 0.0401706 13.50520717 0.04473362 15.23046875 0.04882812 C19.46357541 0.05986388 23.69661664 0.07713189 27.9296875 0.09765625 C24.32484105 2.50088721 21.7496996 2.34453383 17.59375 2.30078125 C16.12238698 2.31133043 14.65103222 2.32308698 13.1796875 2.3359375 C10.86645971 2.34624688 8.55438632 2.34765364 6.24121094 2.32763672 C4.00356903 2.31283371 1.76871316 2.33536119 -0.46875 2.36328125 C-1.15536713 2.34791321 -1.84198425 2.33254517 -2.54940796 2.31671143 C-5.35653949 2.37328422 -7.46538273 2.54386759 -9.58282471 4.4822998 C-10.79213137 5.98423495 -11.93565206 7.53856116 -13.0703125 9.09765625 C-13.7303125 9.09765625 -14.3903125 9.09765625 -15.0703125 9.09765625 C-15.2971875 9.63390625 -15.5240625 10.17015625 -15.7578125 10.72265625 C-18.84473899 16.30852323 -23.13305749 20.1937802 -28.0703125 24.09765625 C-27.50590029 20.18260646 -25.6736131 18.24971401 -23.0078125 15.41015625 C-22.20085937 14.54132813 -21.39390625 13.6725 -20.5625 12.77734375 C-19.74007813 11.89304687 -18.91765625 11.00875 -18.0703125 10.09765625 C-15.93820893 7.67645389 -13.81667751 5.24650815 -11.69921875 2.8125 C-8.32727387 -0.73734125 -4.581981 -0.03043095 0 0 Z " fill="#07070A" transform="translate(527.0703125,83.90234375)"/>
<path d="M0 0 C-0.61746094 0.32871094 -1.23492188 0.65742188 -1.87109375 0.99609375 C-11.12684928 6.19453179 -19.51387313 12.89802219 -23.1171875 23.19140625 C-24.17717378 27.76435589 -24.69194999 32.26978883 -25.125 36.9375 C-25.21136719 37.81212891 -25.29773438 38.68675781 -25.38671875 39.58789062 C-25.59689697 41.72470254 -25.79925518 43.86228122 -26 46 C-26.66 45.67 -27.32 45.34 -28 45 C-28.50695176 30.91800663 -27.08000811 20.32469413 -18 9 C-6.1618887 -2.20067454 -6.1618887 -2.20067454 0 0 Z " fill="#0D0B0F" transform="translate(783,156)"/>
<path d="M0 0 C0.495 1.485 0.495 1.485 1 3 C0.14535156 3.84304687 -0.70929688 4.68609375 -1.58984375 5.5546875 C-2.70586047 6.66132593 -3.82173872 7.76810402 -4.9375 8.875 C-5.50146484 9.43058594 -6.06542969 9.98617187 -6.64648438 10.55859375 C-9.69860028 13.4921571 -9.69860028 13.4921571 -12 17 C-12.66 17 -13.32 17 -14 17 C-14.21140625 17.54011719 -14.4228125 18.08023438 -14.640625 18.63671875 C-16.50277943 21.87408492 -19.08193266 24.2463661 -21.75 26.8125 C-22.83491464 27.87990555 -23.91826289 28.94890564 -25 30.01953125 C-25.51820313 30.53209473 -26.03640625 31.0446582 -26.5703125 31.57275391 C-29.26902126 34.26685422 -31.70989296 36.94652395 -34 40 C-34 41.32 -34 42.64 -34 44 C-37 43 -37 43 -38.1875 40.9375 C-38.455625 40.298125 -38.72375 39.65875 -39 39 C-37.88625 38.4121875 -37.88625 38.4121875 -36.75 37.8125 C-33.75617807 35.83929919 -32.16328053 33.83930569 -30 31 C-27.54020304 28.47713133 -25.02276416 26.02219505 -22.5 23.5625 C-19.92746981 20.9925025 -19.92746981 20.9925025 -17.5 18 C-15.12885733 15.15462879 -12.65020627 12.58395112 -10 10 C-8.7625 8.7625 -8.7625 8.7625 -7.5 7.5 C-5 5 -2.5 2.5 0 0 Z " fill="#0B0A0E" transform="translate(495,150)"/>
<path d="M0 0 C1.31738914 -0.00021904 1.31738914 -0.00021904 2.66139221 -0.0004425 C5.56701113 0.00025467 8.4725661 0.008038 11.37817383 0.01586914 C13.39170802 0.01773401 15.40524266 0.01915759 17.41877747 0.02015686 C22.7206243 0.0239766 28.02244377 0.03380227 33.32427979 0.04486084 C38.73351674 0.05508662 44.14275812 0.05965699 49.55200195 0.06469727 C60.16724835 0.075425 70.78247444 0.09249493 81.39770508 0.11352539 C81.39770508 0.44352539 81.39770508 0.77352539 81.39770508 1.11352539 C79.77944572 1.12565567 79.77944572 1.12565567 78.12849426 1.13803101 C67.96109081 1.21551806 57.79382074 1.30326395 47.62659168 1.40105247 C42.39952562 1.45099677 37.17247958 1.4973271 31.9453125 1.53540039 C26.90074621 1.5722766 21.85634822 1.61864314 16.81192589 1.6715889 C14.88744751 1.69012038 12.96293307 1.70523295 11.03840065 1.71686935 C8.3426452 1.733753 5.64727414 1.76279334 2.95166016 1.79467773 C1.75835335 1.79791801 1.75835335 1.79791801 0.54093933 1.80122375 C-5.76524844 1.89649858 -9.74308274 3.15416731 -14.60229492 7.11352539 C-15.26229492 6.78352539 -15.92229492 6.45352539 -16.60229492 6.11352539 C-11.14583045 0.36211689 -7.68123473 -0.03324122 0 0 Z " fill="#000001" transform="translate(265.602294921875,67.886474609375)"/>
<path d="M0 0 C0.66 0.33 1.32 0.66 2 1 C-5.68170581 7.2200047 -13.3698812 13.36008026 -21.4140625 19.109375 C-25.72465305 22.26092459 -29.86282951 25.62564837 -34 29 C-34.66 28.67 -35.32 28.34 -36 28 C-28.16862328 19.99929622 -19.35464521 13.17514572 -10.4375 6.4375 C-9.7468042 5.912771 -9.0561084 5.38804199 -8.34448242 4.84741211 C-7.69326416 4.36022705 -7.0420459 3.87304199 -6.37109375 3.37109375 C-5.79286865 2.93724365 -5.21464355 2.50339355 -4.61889648 2.05639648 C-3 1 -3 1 0 0 Z " fill="#0C0C0F" transform="translate(185,123)"/>
<path d="M0 0 C3.93698937 0.60212779 6.32361173 2.53342615 9.4375 4.9375 C9.95320557 5.33356445 10.46891113 5.72962891 11.00024414 6.13769531 C12.09978542 6.98296251 13.19730825 7.83086078 14.29296875 8.68115234 C16.01936224 10.01495921 17.75774214 11.33153236 19.5 12.64453125 C24.62826216 16.52975273 29.53400097 20.36128277 34 25 C30.21268324 25 29.19647764 23.93859422 26.1875 21.6875 C24.7334375 20.60082031 24.7334375 20.60082031 23.25 19.4921875 C7.37012722 7.36663032 7.37012722 7.36663032 0 1 C0 0.67 0 0.34 0 0 Z " fill="#0C0B0E" transform="translate(212,218)"/>
<path d="M0 0 C1.485 0.99 1.485 0.99 3 2 C2.67 2.33 2.34 2.66 2 3 C1.87485589 5.70753726 1.81392872 8.39082104 1.79467773 11.09985352 C1.78477814 11.94856018 1.77487854 12.79726685 1.76467896 13.67169189 C1.73296753 16.49073449 1.70826861 19.30979398 1.68359375 22.12890625 C1.66303254 24.07804311 1.6420363 26.02717544 1.62062073 27.9763031 C1.56531402 33.11701793 1.5159428 38.25777357 1.46777344 43.39855957 C1.41762103 48.64009247 1.36190237 53.8815658 1.30664062 59.12304688 C1.19895394 69.41531375 1.09753247 79.70763225 1 90 C-1.55350707 87.44649293 -1.23976445 85.79714088 -1.25994873 82.31570435 C-1.25432922 81.52187347 -1.24870972 80.7280426 -1.24291992 79.91015625 C-1.24481827 79.07426971 -1.24671661 78.23838318 -1.24867249 77.37716675 C-1.2523866 74.6055167 -1.24166702 71.83412689 -1.23046875 69.0625 C-1.22927718 67.14200878 -1.22882374 65.22151697 -1.2290802 63.30102539 C-1.22751423 59.27258668 -1.21921597 55.2442367 -1.20581055 51.21582031 C-1.18882056 46.04374297 -1.18499615 40.87176323 -1.18575573 35.69966125 C-1.18548421 31.73294131 -1.1800059 27.76624284 -1.17275429 23.79953003 C-1.16956488 21.89208133 -1.16759958 19.98463018 -1.16686058 18.07717896 C-1.1646999 15.41469145 -1.15596152 12.75230884 -1.14526367 10.08984375 C-1.14571686 9.29601288 -1.14617004 8.50218201 -1.14663696 7.68429565 C-1.11447703 2.22895407 -1.11447703 2.22895407 0 0 Z " fill="#24232B" transform="translate(97,76)"/>
<path d="M0 0 C0.495 1.485 0.495 1.485 1 3 C-0.54107422 4.14275391 -0.54107422 4.14275391 -2.11328125 5.30859375 C-9.46244212 10.77779874 -16.72839353 16.29215423 -23.765625 22.16015625 C-24.50296875 22.76730469 -25.2403125 23.37445313 -26 24 C-27.04414063 24.89525391 -27.04414063 24.89525391 -28.109375 25.80859375 C-28.73328125 26.20175781 -29.3571875 26.59492188 -30 27 C-30.99 26.67 -31.98 26.34 -33 26 C-27.25 21 -27.25 21 -25 21 C-25 20.34 -25 19.68 -25 19 C-22.74592092 17.04018712 -20.4867439 15.19599236 -18.125 13.375 C-17.47402344 12.859375 -16.82304687 12.34375 -16.15234375 11.8125 C-11.26064401 8 -11.26064401 8 -9 8 C-9 7.34 -9 6.68 -9 6 C-7.04109119 4.60699818 -5.0360882 3.27754554 -3 2 C-2.01 1.34 -1.02 0.68 0 0 Z " fill="#0C0B0F" transform="translate(273,127)"/>
<path d="M0 0 C3.50436989 1.58315063 6.38053351 3.67720321 9.4375 6 C10.48808594 6.79792969 11.53867188 7.59585938 12.62109375 8.41796875 C13.44649658 9.04904541 13.44649658 9.04904541 14.28857422 9.69287109 C16.03358497 11.02565106 17.78406241 12.35100714 19.53515625 13.67578125 C20.69039299 14.55430784 21.84534822 15.43320474 23 16.3125 C23.53939209 16.72048828 24.07878418 17.12847656 24.63452148 17.54882812 C27.64244474 19.85264861 30.38751988 22.25563987 33 25 C28.1073978 24.55272853 25.15103204 22.09350683 21.5 19.0625 C20.26771783 18.06282655 19.03462434 17.06415249 17.80078125 16.06640625 C17.17510254 15.5573877 16.54942383 15.04836914 15.90478516 14.52392578 C14.03815927 13.03052937 12.144539 11.58427036 10.23046875 10.15234375 C9.63492188 9.70560303 9.039375 9.2588623 8.42578125 8.79858398 C7.28745759 7.94819865 6.14564103 7.10246429 5 6.26196289 C2.29567616 4.2247794 1.09846744 3.29540231 0 0 Z " fill="#0B0A0D" transform="translate(99,193)"/>
<path d="M0 0 C6.72228849 2.83043726 10.54212574 6.26048688 15 12 C18.62276315 10.6744419 21.63505348 9.05653045 24.8125 6.875 C25.60269531 6.33617187 26.39289062 5.79734375 27.20703125 5.2421875 C28.09455078 4.62730469 28.09455078 4.62730469 29 4 C29.33 4.99 29.66 5.98 30 7 C28.27136297 8.10499565 26.54206612 9.20895914 24.8125 10.3125 C23.84957031 10.92738281 22.88664063 11.54226562 21.89453125 12.17578125 C19.28365697 13.82123103 16.6530398 15.42369665 14 17 C13.67128906 16.41992188 13.34257813 15.83984375 13.00390625 15.2421875 C9.25057452 9.0781793 5.25726322 5.54578249 -1 2 C-0.67 1.34 -0.34 0.68 0 0 Z " fill="#0D0C0F" transform="translate(816,174)"/>
<path d="M0 0 C0.66 0.33 1.32 0.66 2 1 C1.22398437 1.59425781 0.44796875 2.18851562 -0.3515625 2.80078125 C-8.61639189 9.13926069 -16.82160247 15.55046912 -25 22 C-25.66 21.67 -26.32 21.34 -27 21 C-27 20.34 -27 19.68 -27 19 C-25.65820312 17.76660156 -25.65820312 17.76660156 -23.78125 16.390625 C-23.09546875 15.88273437 -22.4096875 15.37484375 -21.703125 14.8515625 C-20.97609375 14.32304688 -20.2490625 13.79453125 -19.5 13.25 C-18.80390625 12.73695312 -18.1078125 12.22390625 -17.390625 11.6953125 C-15.97899773 10.65489092 -14.56490905 9.61780107 -13.1484375 8.58398438 C-10.31473085 6.49476975 -7.52714554 4.34661889 -4.74414062 2.19042969 C-3 1 -3 1 0 0 Z " fill="#0C0C0F" transform="translate(219,97)"/>
<path d="M0 0 C4.99697286 3.71569777 8.60094478 8.07524482 12.4765625 12.9296875 C16.76675389 18.14964173 21.39024004 23.06281783 26 28 C25.01 28.33 24.02 28.66 23 29 C5 9.63106796 5 9.63106796 5 7 C4.34 7 3.68 7 3 7 C0.70351351 4.4385343 0 3.52032428 0 0 Z " fill="#0B0B0D" transform="translate(467,241)"/>
<path d="M0 0 C0.33 0.99 0.66 1.98 1 3 C-7.95382878 10.06104038 -16.94658736 17.06707105 -26 24 C-26.66 23.01 -27.32 22.02 -28 21 C-27.360625 20.649375 -26.72125 20.29875 -26.0625 19.9375 C-18.69652843 15.27739554 -12.08671249 9.46635322 -5.3828125 3.91796875 C-3 2 -3 2 0 0 Z " fill="#0D0C0F" transform="translate(127,280)"/>
<path d="M0 0 C0.20254517 1.87295532 0.20254517 1.87295532 0.13525391 4.17431641 C0.11508209 5.03505768 0.09491028 5.89579895 0.0741272 6.78262329 C0.02583267 8.1779982 0.02583267 8.1779982 -0.0234375 9.6015625 C-0.04846344 10.55316254 -0.07348938 11.50476257 -0.09927368 12.48519897 C-0.181612 15.53215431 -0.27814792 18.57847476 -0.375 21.625 C-0.43322542 23.68747385 -0.49052899 25.74997395 -0.546875 27.8125 C-0.68721144 32.87536683 -0.84028437 37.93770895 -1 43 C-1.33 43 -1.66 43 -2 43 C-2 28.81 -2 14.62 -2 0 C-11.9 0.33 -21.8 0.66 -32 1 C-31.67 0.34 -31.34 -0.32 -31 -1 C-26.90707083 -1.19222407 -22.81379909 -1.3709507 -18.71972656 -1.53710938 C-17.32666167 -1.59555965 -15.9337472 -1.65771628 -14.54101562 -1.72363281 C-12.54079773 -1.81766015 -10.53992068 -1.89732059 -8.5390625 -1.9765625 C-7.33459473 -2.02893066 -6.13012695 -2.08129883 -4.88916016 -2.13525391 C-2 -2 -2 -2 0 0 Z " fill="#201E24" transform="translate(724,154)"/>
<path d="M0 0 C6.08633096 0.6061421 11.44963947 2.36748566 17.1875 4.4375 C18.07630859 4.75009766 18.96511719 5.06269531 19.88085938 5.38476562 C23.70979981 6.74546346 27.39083259 8.1207704 31 10 C30.67 10.99 30.34 11.98 30 13 C29.34257813 12.70867187 28.68515625 12.41734375 28.0078125 12.1171875 C18.85161261 8.17183307 9.48018263 5.06525905 0 2 C0 1.34 0 0.68 0 0 Z " fill="#0D0C10" transform="translate(802,213)"/>
<path d="M0 0 C-1.4707178 3.60127117 -3.36746524 5.34444947 -6.4375 7.6875 C-11.26991111 11.42418998 -15.97245128 15.289121 -20.65234375 19.21484375 C-23 21 -23 21 -26 22 C-25.67 20.02 -25.34 18.04 -25 16 C-24.42507812 15.89816406 -23.85015625 15.79632813 -23.2578125 15.69140625 C-20.58854214 14.87399993 -19.04167331 13.69242543 -16.875 11.9375 C-16.09769531 11.31617188 -15.32039063 10.69484375 -14.51953125 10.0546875 C-12.76543908 8.62421854 -11.01295435 7.19177717 -9.26171875 5.7578125 C-8.37097656 5.03335938 -7.48023437 4.30890625 -6.5625 3.5625 C-5.73878906 2.88316406 -4.91507813 2.20382813 -4.06640625 1.50390625 C-2 0 -2 0 0 0 Z " fill="#0D0C0F" transform="translate(124,144)"/>
<path d="M0 0 C0 0.66 0 1.32 0 2 C-1.5159375 2.7734375 -1.5159375 2.7734375 -3.0625 3.5625 C-9.55250357 7.28045751 -14.14523456 12.67818468 -18 19 C-19 17 -19 17 -18.5 14.875 C-14.78947902 7.76316812 -8.47020652 0 0 0 Z " fill="#121116" transform="translate(633,155)"/>
<path d="M0 0 C6.5686531 0.71826542 9.85891055 5.22656543 14 10 C18.14875549 15.54963397 18.14875549 15.54963397 17.75 19.4375 C17.5025 19.953125 17.255 20.46875 17 21 C14.9758912 18.9758912 14.22283405 17.4865695 13 14.9375 C10.24423473 9.80062034 6.43520361 6.46960187 2.01171875 2.75 C1.34785156 2.1725 0.68398438 1.595 0 1 C0 0.67 0 0.34 0 0 Z " fill="#0D0C10" transform="translate(836,227)"/>
<path d="M0 0 C3.37999688 0.61303865 5.4145584 1.83863269 8.109375 3.94140625 C8.86347656 4.52470703 9.61757813 5.10800781 10.39453125 5.70898438 C11.17183594 6.32064453 11.94914062 6.93230469 12.75 7.5625 C13.54277344 8.17802734 14.33554687 8.79355469 15.15234375 9.42773438 C17.10616775 10.94606748 19.0550928 12.47027276 21 14 C20.01 14.66 19.02 15.32 18 16 C16.53515625 14.73046875 15.0703125 13.4609375 13.60546875 12.19140625 C11.89287029 10.79128769 11.89287029 10.79128769 9 10 C5.65571025 6.91296331 2.7773563 3.60027668 0 0 Z " fill="#0B0B0E" transform="translate(255,251)"/>
<path d="M0 0 C4.41467783 1.44450855 7.54653674 3.86855863 11 6.875 C15.36975824 10.61735958 15.36975824 10.61735958 19.875 14.1953125 C20.57625 14.79085938 21.2775 15.38640625 22 16 C22 16.66 22 17.32 22 18 C18.11046659 16.29773477 14.89394064 13.77269793 11.5625 11.1875 C11.00240234 10.76146484 10.44230469 10.33542969 9.86523438 9.89648438 C6.30539306 7.1507958 3.07030201 4.28837954 0 1 C0 0.67 0 0.34 0 0 Z " fill="#0C0B0F" transform="translate(245,306)"/>
<path d="M0 0 C0.99 0.33 1.98 0.66 3 1 C-3.67788035 7.09280926 -10.80166448 12.546383 -18 18 C-18.66 17.34 -19.32 16.68 -20 16 C-18.58847656 14.89591797 -18.58847656 14.89591797 -17.1484375 13.76953125 C-15.89058726 12.78390233 -14.63277689 11.79822253 -13.375 10.8125 C-12.75753906 10.32974609 -12.14007813 9.84699219 -11.50390625 9.34960938 C-10.89160156 8.86943359 -10.27929688 8.38925781 -9.6484375 7.89453125 C-9.03709961 7.41709473 -8.42576172 6.9396582 -7.79589844 6.44775391 C-6.05252142 5.04233986 -4.39565466 3.56628598 -2.7265625 2.07421875 C-1.37691406 1.04748047 -1.37691406 1.04748047 0 0 Z " fill="#0C0B0E" transform="translate(149,262)"/>
<path d="M0 0 C0.66 0 1.32 0 2 0 C1.5096132 4.56877037 -0.14846997 6.74016568 -3.25 10.0625 C-4.01828125 10.89910156 -4.7865625 11.73570312 -5.578125 12.59765625 C-12.03252033 19 -12.03252033 19 -15 19 C-13.59489496 15.68539324 -11.99907653 13.9648557 -9.1875 11.75 C-5.54718286 8.70429002 -3.26273607 5.65895772 -1.0078125 1.50390625 C-0.67523437 1.00761719 -0.34265625 0.51132812 0 0 Z " fill="#0D0C10" transform="translate(850,281)"/>
<path d="M0 0 C0.33 0.99 0.66 1.98 1 3 C-1.74178669 5.15649661 -4.49473993 7.29825336 -7.25 9.4375 C-8.02730469 10.04916016 -8.80460938 10.66082031 -9.60546875 11.29101562 C-10.35957031 11.87431641 -11.11367187 12.45761719 -11.890625 13.05859375 C-12.58188477 13.59798584 -13.27314453 14.13737793 -13.98535156 14.69311523 C-16.02039787 16.01323192 -17.62911716 16.56998694 -20 17 C-16.28341402 13.17881967 -12.3921903 9.67823353 -8.3125 6.25 C-7.73177734 5.75628906 -7.15105469 5.26257813 -6.55273438 4.75390625 C-2.25669643 1.12834821 -2.25669643 1.12834821 0 0 Z " fill="#0C0B0E" transform="translate(145,126)"/>
<path d="M0 0 C3.61403644 1.33853201 5.23778565 3.51170494 7.578125 6.48046875 C9.98910757 9.05704078 12.89031713 10.36034903 16 12 C17.35387289 12.97201131 18.69855198 13.95884159 20 15 C11.19148384 14.29531871 6.8936892 10.19838804 1.3203125 3.8046875 C0 2 0 2 0 0 Z " fill="#0D0C0F" transform="translate(892,290)"/>
<path d="M0 0 C7.59 0 15.18 0 23 0 C23.33 0.66 23.66 1.32 24 2 C20.1413258 2.89820163 16.52163233 3.16418356 12.5625 3.1875 C11.47066406 3.20167969 10.37882813 3.21585937 9.25390625 3.23046875 C5.86664623 2.99055478 3.16141429 2.20639188 0 1 C0 0.67 0 0.34 0 0 Z " fill="#08070A" transform="translate(792,283)"/>
<path d="M0 0 C0 0.99 0 1.98 0 3 C-1.57421875 4.32421875 -1.57421875 4.32421875 -3.6875 5.6875 C-8.0950802 8.79550948 -10.50572421 12.27526605 -13 17 C-13.66 16.67 -14.32 16.34 -15 16 C-11.9987734 9.30495605 -8.93690857 3.88286931 -2.125 0.625 C-1.42375 0.41875 -0.7225 0.2125 0 0 Z " fill="#0C0B0E" transform="translate(629,179)"/>
<path d="M0 0 C3.55685722 3.50558721 6.96283047 7.10553239 10.3125 10.8125 C11.19550781 11.78832031 12.07851563 12.76414062 12.98828125 13.76953125 C13.65214844 14.50558594 14.31601562 15.24164063 15 16 C14.34 16.66 13.68 17.32 13 18 C11.00842266 15.94834491 9.03216896 13.88501206 7.0625 11.8125 C6.49853516 11.23435547 5.93457031 10.65621094 5.35351562 10.06054688 C2.31954692 6.84490339 0.26968421 4.61942953 0 0 Z " fill="#0B090C" transform="translate(495,273)"/>
<path d="M0 0 C3.12498063 -0.02895976 6.2499269 -0.04678483 9.375 -0.0625 C10.70917969 -0.07506836 10.70917969 -0.07506836 12.0703125 -0.08789062 C13.34648438 -0.09272461 13.34648438 -0.09272461 14.6484375 -0.09765625 C15.43395996 -0.10289307 16.21948242 -0.10812988 17.02880859 -0.11352539 C19 0 19 0 21 1 C21 1.66 21 2.32 21 3 C14.07 2.67 7.14 2.34 0 2 C0 1.34 0 0.68 0 0 Z " fill="#080709" transform="translate(800,150)"/>
<path d="M0 0 C4.31706891 0.49725401 6.22148342 1.74261112 9.1875 4.875 C9.86167969 5.57367188 10.53585937 6.27234375 11.23046875 6.9921875 C13 9 13 9 15 12 C14.625 14.6875 14.625 14.6875 14 17 C13.731875 16.4225 13.46375 15.845 13.1875 15.25 C12.04946754 12.94252104 12.04946754 12.94252104 10.375 10.875 C9 9 9 9 9 7 C8.443125 6.773125 7.88625 6.54625 7.3125 6.3125 C4.36753316 4.64103234 2.31843456 2.44723648 0 0 Z " fill="#09080A" transform="translate(835,159)"/>
<path d="M0 0 C4.40785758 0.87570555 7.30710183 3.31196487 10.75 6.0625 C11.35199219 6.53494141 11.95398438 7.00738281 12.57421875 7.49414062 C14.05409943 8.65690401 15.52768096 9.8276766 17 11 C16.67 11.66 16.34 12.32 16 13 C12.55872939 11.4554297 9.81303858 9.417316 6.875 7.0625 C6.00617188 6.37285156 5.13734375 5.68320313 4.2421875 4.97265625 C2 3 2 3 0 0 Z " fill="#0B0A0D" transform="translate(131,105)"/>
<path d="M0 0 C0.33 0 0.66 0 1 0 C1.96281307 4.61522351 2.70059355 8.53340787 0.375 12.8125 C-1.89328251 15.85677389 -3.76970874 18.01212845 -7 20 C-7.99 19.67 -8.98 19.34 -10 19 C-9.51789062 18.61328125 -9.03578125 18.2265625 -8.5390625 17.828125 C-7.90742187 17.30734375 -7.27578125 16.7865625 -6.625 16.25 C-5.99851562 15.73953125 -5.37203125 15.2290625 -4.7265625 14.703125 C-1.55737328 11.57695645 -0.75954974 8.60823041 -0.375 4.25 C-0.30023437 3.45078125 -0.22546875 2.6515625 -0.1484375 1.828125 C-0.09945312 1.22484375 -0.05046875 0.6215625 0 0 Z " fill="#0C0B0E" transform="translate(725,95)"/>
<path d="M0 0 C1.14726563 0.00644531 2.29453125 0.01289062 3.4765625 0.01953125 C6.375 0.1875 6.375 0.1875 8.375 1.1875 C8.375 1.8475 8.375 2.5075 8.375 3.1875 C7.35019531 3.16429688 6.32539062 3.14109375 5.26953125 3.1171875 C3.90886149 3.09841964 2.5481838 3.08022053 1.1875 3.0625 C0.51396484 3.04574219 -0.15957031 3.02898437 -0.85351562 3.01171875 C-4.91307807 2.97211326 -7.97498815 3.38729998 -11.625 5.1875 C-10.625 2.1875 -10.625 2.1875 -8.9765625 1.01171875 C-5.89796125 -0.06732587 -3.25630098 -0.04042812 0 0 Z " fill="#0B0A0D" transform="translate(707.625,77.8125)"/>
<path d="M0 0 C2.64920076 0.94976983 5.29411973 1.90927908 7.9375 2.875 C8.69224609 3.14441406 9.44699219 3.41382813 10.22460938 3.69140625 C15.88671875 5.7734375 15.88671875 5.7734375 17 8 C10.59859065 7.53444296 5.73230171 5.85288164 0 3 C0 2.01 0 1.02 0 0 Z " fill="#0D0C0F" transform="translate(777,228)"/>
<path d="M0 0 C4.00735217 0.60110283 6.55469371 2.66602028 9.75 5.0625 C10.73484375 5.79597656 11.7196875 6.52945313 12.734375 7.28515625 C13.48203125 7.85105469 14.2296875 8.41695312 15 9 C14.01 9.66 13.02 10.32 12 11 C9.96166576 9.7260411 7.96147874 8.38938077 6 7 C6 6.34 6 5.68 6 5 C5.38125 4.731875 4.7625 4.46375 4.125 4.1875 C2 3 2 3 0 0 Z " fill="#0D0C10" transform="translate(106,224)"/>
<path d="M0 0 C0.33 0.99 0.66 1.98 1 3 C-1.9431407 7.83270574 -6.60064683 11.54336536 -11 15 C-10.46331672 10.88862274 -8.26775171 8.77732264 -5.5 5.8125 C-4.6853125 4.93207031 -3.870625 4.05164063 -3.03125 3.14453125 C-1 1 -1 1 0 0 Z " fill="#0D0C10" transform="translate(510,93)"/>
<path d="M0 0 C3.21458724 1.48195421 5.93335896 3.29740509 8.75 5.4375 C9.94882813 6.33275391 9.94882813 6.33275391 11.171875 7.24609375 C12.07679688 8.11427734 12.07679688 8.11427734 13 9 C13 9.99 13 10.98 13 12 C10.32610077 10.0095043 7.66142477 8.00713735 5 6 C4.01 5.2575 3.02 4.515 2 3.75 C1.34 3.1725 0.68 2.595 0 2 C0 1.34 0 0.68 0 0 Z " fill="#0C0C0E" transform="translate(117,93)"/>
<path d="M0 0 C-1.47065925 3.58522876 -3.40065542 5.44386096 -6.4375 7.8125 C-7.21996094 8.43769531 -8.00242187 9.06289062 -8.80859375 9.70703125 C-9.53175781 10.13371094 -10.25492187 10.56039062 -11 11 C-11.99 10.67 -12.98 10.34 -14 10 C-12.75160501 8.894019 -11.50120766 7.79029799 -10.25 6.6875 C-9.55390625 6.07261719 -8.8578125 5.45773438 -8.140625 4.82421875 C-2.47965739 0 -2.47965739 0 0 0 Z " fill="#0C0A0D" transform="translate(296,110)"/>
<path d="M0 0 C3.9520518 0.58172725 6.22095053 2.55157741 9.25 5.0625 C10.14203125 5.79597656 11.0340625 6.52945313 11.953125 7.28515625 C12.62859375 7.85105469 13.3040625 8.41695313 14 9 C13.01 9.33 12.02 9.66 11 10 C8.80859375 8.671875 8.80859375 8.671875 6.4375 6.75 C5.65246094 6.12609375 4.86742187 5.5021875 4.05859375 4.859375 C2 3 2 3 0 0 Z " fill="#0B0B0E" transform="translate(138,249)"/>
<path d="M0 0 C3.9520518 0.58172725 6.22095053 2.55157741 9.25 5.0625 C10.14203125 5.79597656 11.0340625 6.52945313 11.953125 7.28515625 C12.62859375 7.85105469 13.3040625 8.41695312 14 9 C13.34 9.66 12.68 10.32 12 11 C10.37081993 9.73452987 8.74679358 8.46242272 7.125 7.1875 C6.22007812 6.47980469 5.31515625 5.77210938 4.3828125 5.04296875 C2 3 2 3 0 0 Z " fill="#0B0A0D" transform="translate(124,238)"/>
<path d="M0 0 C5.2584002 0.67415387 10.02638346 2.24265549 15 4 C15 4.66 15 5.32 15 6 C9.54520815 5.43179252 5.08940744 4.05362055 0 2 C0 1.34 0 0.68 0 0 Z " fill="#0C0A0E" transform="translate(796,236)"/>
<path d="M0 0 C0.33 0 0.66 0 1 0 C1.226875 1.19625 1.45375 2.3925 1.6875 3.625 C2.7948776 8.16767308 4.80831111 10.64032749 8 14 C7.01 14.33 6.02 14.66 5 15 C-0.87892377 8.43946188 -0.87892377 8.43946188 -1.17578125 4.91015625 C-0.875 3 -0.875 3 0 0 Z " fill="#0E0E11" transform="translate(916,268)"/>
<path d="M0 0 C5.35152885 0.32433508 8.28280043 3.49704824 12 7 C11.34 7.66 10.68 8.32 10 9 C8.53515625 7.69791667 7.0703125 6.39583333 5.60546875 5.09375 C3.910552 3.71848759 3.910552 3.71848759 1 4 C0.67 2.68 0.34 1.36 0 0 Z " fill="#0C0C0F" transform="translate(815,243)"/>
<path d="M0 0 C5.70709064 0.46588495 9.15939723 1.93757784 14 5 C14 5.33 14 5.66 14 6 C8.29290936 5.53411505 4.84060277 4.06242216 0 1 C0 0.67 0 0.34 0 0 Z " fill="#0E0D11" transform="translate(824,153)"/>
<path d="M0 0 C3.5786304 1.65167557 6.74820188 3.78286492 10 6 C9.67 6.99 9.34 7.98 9 9 C7.67870176 8.265611 6.36816829 7.51183106 5.0625 6.75 C4.33160156 6.33234375 3.60070312 5.9146875 2.84765625 5.484375 C0.68142682 3.74406383 0.36405249 2.70438996 0 0 Z " fill="#0C0B0E" transform="translate(784,202)"/>
<path d="M0 0 C0.33 0.66 0.66 1.32 1 2 C-5.6 1.67 -12.2 1.34 -19 1 C-19 0.67 -19 0.34 -19 0 C-5.77462594 -1.41157523 -5.77462594 -1.41157523 0 0 Z " fill="#1A191E" transform="translate(655,178)"/>
<path d="M0 0 C4.95 0 9.9 0 15 0 C15 0.66 15 1.32 15 2 C9.43842552 2.91457003 5.324335 3.32086397 0 1 C0 0.67 0 0.34 0 0 Z " fill="#070509" transform="translate(585,301)"/>
<path d="M0 0 C1.21236328 0.01353516 1.21236328 0.01353516 2.44921875 0.02734375 C3.37154297 0.04474609 3.37154297 0.04474609 4.3125 0.0625 C1.16676323 2.15965785 -0.70206251 2.58254559 -4.375 3.1875 C-5.86580078 3.43886719 -5.86580078 3.43886719 -7.38671875 3.6953125 C-8.14597656 3.81648437 -8.90523437 3.93765625 -9.6875 4.0625 C-6.9209694 -0.0872959 -4.6801992 -0.06782897 0 0 Z " fill="#0B0A0E" transform="translate(793.6875,150.9375)"/>
<path d="M0 0 C0.33 0.66 0.66 1.32 1 2 C-4 8.57142857 -4 8.57142857 -9 10 C-7.75537955 6.26613864 -6.08692325 5.35194152 -3 3 C-1.9826127 2.01769502 -0.97403883 1.02530403 0 0 Z " fill="#0A090C" transform="translate(828,272)"/>
<path d="M0 0 C0.66 0 1.32 0 2 0 C3.66666667 3.33333333 5.33333333 6.66666667 7 10 C6.34 10.66 5.68 11.32 5 12 C4.15556432 10.75747321 3.3248542 9.5056114 2.5 8.25 C1.80390625 7.20585937 1.80390625 7.20585937 1.09375 6.140625 C0 4 0 4 0 0 Z " fill="#0D0C0F" transform="translate(758,208)"/>
<path d="M0 0 C1.32 0.33 2.64 0.66 4 1 C-0.455 4.465 -0.455 4.465 -5 8 C-5.66 7.67 -6.32 7.34 -7 7 C-4.66666667 4.66666667 -2.33333333 2.33333333 0 0 Z " fill="#0C0B0E" transform="translate(144,153)"/>
<path d="M0 0 C0.99 0.33 1.98 0.66 3 1 C2.01 1.33 1.02 1.66 0 2 C0.66 4.31 1.32 6.62 2 9 C1.01 8.67 0.02 8.34 -1 8 C-2.1875 4.9375 -2.1875 4.9375 -3 2 C-2.01 1.34 -1.02 0.68 0 0 Z " fill="#0D0D10" transform="translate(754,274)"/>
<path d="M0 0 C0.99 0.33 1.98 0.66 3 1 C0.36 2.98 -2.28 4.96 -5 7 C-5.66 6.67 -6.32 6.34 -7 6 C-2.25 1.125 -2.25 1.125 0 0 Z " fill="#0A090C" transform="translate(766,266)"/>
<path d="M0 0 C0.66 0.33 1.32 0.66 2 1 C-1.75 4 -1.75 4 -4 4 C-4 4.66 -4 5.32 -4 6 C-6 7.625 -6 7.625 -8 9 C-8.66 8.67 -9.32 8.34 -10 8 C-6.91367389 4.7373124 -4.06516496 1.97764782 0 0 Z " fill="#08080B" transform="translate(232,87)"/>
<path d="M0 0 C0.33 0.66 0.66 1.32 1 2 C2.423125 1.9690625 2.423125 1.9690625 3.875 1.9375 C7 2 7 2 9 3 C8.67 3.66 8.34 4.32 8 5 C5.03 5 2.06 5 -1 5 C-0.67 3.35 -0.34 1.7 0 0 Z " fill="#0D0C0F" transform="translate(694,299)"/>
<path d="M0 0 C1.29315061 0.95632999 2.58446853 1.91513851 3.875 2.875 C4.59429688 3.40867188 5.31359375 3.94234375 6.0546875 4.4921875 C8 6 8 6 10 8 C5.61999924 7.49942848 3.15830185 6.06806466 0 3 C0 2.01 0 1.02 0 0 Z " fill="#0E0D10" transform="translate(765,219)"/>
<path d="M0 0 C0 0.99 0 1.98 0 3 C-5.14285714 7 -5.14285714 7 -9 7 C-3.65789474 0 -3.65789474 0 0 0 Z " fill="#0F0D11" transform="translate(793,174)"/>
<path d="M0 0 C3.5786304 1.65167557 6.74820188 3.78286492 10 6 C8.375 6.8125 8.375 6.8125 6 7 C2.75 4.6875 2.75 4.6875 0 2 C0 1.34 0 0.68 0 0 Z " fill="#0A0A0C" transform="translate(223,289)"/>
<path d="M0 0 C0 3.39593478 -0.52165948 4.06619881 -2.5 6.6875 C-2.9640625 7.31011719 -3.428125 7.93273437 -3.90625 8.57421875 C-4.2671875 9.04472656 -4.628125 9.51523438 -5 10 C-6 8 -6 8 -5.3125 5.5625 C-3.89170315 2.78856329 -2.60253852 1.64827439 0 0 Z " fill="#08080B" transform="translate(620,164)"/>
<path d="M0 0 C4.24822374 0.47202486 6.19989709 2.96655518 9 6 C4.58763974 6 3.21615077 3.9302707 0 1 C0 0.67 0 0.34 0 0 Z " fill="#0C0A0E" transform="translate(246,244)"/>
<path d="M0 0 C0.886875 0.103125 1.77375 0.20625 2.6875 0.3125 C1.8521875 0.68375 1.8521875 0.68375 1 1.0625 C-1.71221127 2.52856015 -3.94837365 4.34239471 -6.3125 6.3125 C-6.9725 5.9825 -7.6325 5.6525 -8.3125 5.3125 C-4.12788462 0.38942308 -4.12788462 0.38942308 0 0 Z " fill="#0A090C" transform="translate(257.3125,68.6875)"/>
<path d="M0 0 C0 0.66 0 1.32 0 2 C-5.75 5 -5.75 5 -8 5 C-6.44843568 0.34530705 -4.78780941 0 0 0 Z " fill="#0A090D" transform="translate(633,155)"/>
<path d="M0 0 C1.32 0.33 2.64 0.66 4 1 C1.03 3.475 1.03 3.475 -2 6 C-2.66 5.67 -3.32 5.34 -4 5 C-2.68 3.35 -1.36 1.7 0 0 Z " fill="#0C0B0E" transform="translate(114,176)"/>
<path d="M0 0 C1.32 0.33 2.64 0.66 4 1 C1.03 3.475 1.03 3.475 -2 6 C-2.66 5.67 -3.32 5.34 -4 5 C-2.68 3.35 -1.36 1.7 0 0 Z " fill="#0B0A0D" transform="translate(131,163)"/>
<path d="M0 0 C2.97 0.33 5.94 0.66 9 1 C8.67 1.66 8.34 2.32 8 3 C5.6568787 2.74438677 3.32156597 2.40729228 1 2 C0.67 1.34 0.34 0.68 0 0 Z " fill="#0B0A0D" transform="translate(661,153)"/>
<path d="M0 0 C1.98 0 3.96 0 6 0 C5.67 0.66 5.34 1.32 5 2 C3.35 1.67 1.7 1.34 0 1 C0 0.67 0 0.34 0 0 Z " fill="#29282F" transform="translate(879,179)"/>
<path d="M0 0 C1 4 1 4 1 4 Z " fill="#2E2C34" transform="translate(753,189)"/>
<path d="" fill="#2D2B32" transform="translate(0,0)"/>
<path d="M0 0 C3 1 3 1 3 1 Z " fill="#2C2A30" transform="translate(637,180)"/>
<path d="M0 0 C3 1 3 1 3 1 Z " fill="#2C2931" transform="translate(930,179)"/>
<path d="M0 0 C0.66 0.66 1.32 1.32 2 2 C1.34 2 0.68 2 0 2 C0 1.34 0 0.68 0 0 Z " fill="#2B2B33" transform="translate(880,150)"/>
<path d="M0 0 C2 1 2 1 2 1 Z " fill="#2A2830" transform="translate(216,288)"/>
<path d="" fill="#2C2B33" transform="translate(0,0)"/>
<path d="" fill="#2B2B32" transform="translate(0,0)"/>
<path d="" fill="#2B2A30" transform="translate(0,0)"/>
<path d="" fill="#2C2A32" transform="translate(0,0)"/>
<path d="" fill="#2B2A32" transform="translate(0,0)"/>
<path d="" fill="#2C2C33" transform="translate(0,0)"/>
<path d="" fill="#2C2B32" transform="translate(0,0)"/>
<path d="" fill="#29272E" transform="translate(0,0)"/>
<path d="" fill="#2C2B33" transform="translate(0,0)"/>
<path d="M0 0 C2 1 2 1 2 1 Z " fill="#2E2E34" transform="translate(790,205)"/>
<path d="" fill="#2A2A30" transform="translate(0,0)"/>
<path d="" fill="#2D2C34" transform="translate(0,0)"/>
<path d="" fill="#2D2B34" transform="translate(0,0)"/>
<path d="" fill="#2D2B33" transform="translate(0,0)"/>
<path d="" fill="#302F34" transform="translate(0,0)"/>
<path d="M0 0 C2 1 2 1 2 1 Z " fill="#2E2F36" transform="translate(657,184)"/>
<path d="M0 0 C2 1 2 1 2 1 Z " fill="#2E2C33" transform="translate(948,179)"/>
<path d="M0 0 C2 1 2 1 2 1 Z " fill="#2E2B33" transform="translate(944,179)"/>
<path d="M0 0 C2 1 2 1 2 1 Z " fill="#2C2A31" transform="translate(935,179)"/>
<path d="M0 0 C2 1 2 1 2 1 Z " fill="#2A2730" transform="translate(875,179)"/>
<path d="M0 0 C2 1 2 1 2 1 Z " fill="#302E33" transform="translate(809,176)"/>
<path d="" fill="#2E2D34" transform="translate(0,0)"/>
<path d="M0 0 C2 1 2 1 2 1 Z " fill="#2D2B33" transform="translate(917,151)"/>
<path d="M0 0 C2 1 2 1 2 1 Z " fill="#292831" transform="translate(883,151)"/>
<path d="M0 0 C2 1 2 1 2 1 Z " fill="#323037" transform="translate(720,151)"/>
<path d="M0 0 C2 1 2 1 2 1 Z " fill="#2F2C35" transform="translate(717,116)"/>
<path d="" fill="#2E2D33" transform="translate(0,0)"/>
<path d="M0 0 C2 1 2 1 2 1 Z " fill="#2B2932" transform="translate(496,105)"/>
<path d="" fill="#323038" transform="translate(0,0)"/>
<path d="" fill="#292931" transform="translate(0,0)"/>
<path d="" fill="#2E2C34" transform="translate(0,0)"/>
<path d="" fill="#2F2E35" transform="translate(0,0)"/>
<path d="" fill="#303035" transform="translate(0,0)"/>
<path d="" fill="#2F2E33" transform="translate(0,0)"/>
<path d="" fill="#343337" transform="translate(0,0)"/>
<path d="" fill="#34323A" transform="translate(0,0)"/>
<path d="" fill="#34333C" transform="translate(0,0)"/>
<path d="" fill="#322E36" transform="translate(0,0)"/>
<path d="" fill="#333239" transform="translate(0,0)"/>
<path d="" fill="#2E2F37" transform="translate(0,0)"/>
<path d="" fill="#302E35" transform="translate(0,0)"/>
<path d="" fill="#2E2D36" transform="translate(0,0)"/>
<path d="" fill="#2D2D34" transform="translate(0,0)"/>
<path d="" fill="#2A292F" transform="translate(0,0)"/>
<path d="" fill="#2C2D33" transform="translate(0,0)"/>
<path d="" fill="#2A252E" transform="translate(0,0)"/>
<path d="" fill="#28272D" transform="translate(0,0)"/>
<path d="" fill="#292B31" transform="translate(0,0)"/>
<path d="" fill="#312E36" transform="translate(0,0)"/>
<path d="" fill="#2D2931" transform="translate(0,0)"/>
<path d="" fill="#2A272E" transform="translate(0,0)"/>
<path d="" fill="#2D2E35" transform="translate(0,0)"/>
<path d="" fill="#2D2A31" transform="translate(0,0)"/>
<path d="" fill="#2D2C32" transform="translate(0,0)"/>
<path d="" fill="#28272F" transform="translate(0,0)"/>
<path d="" fill="#2A272D" transform="translate(0,0)"/>
<path d="" fill="#2E2931" transform="translate(0,0)"/>
<path d="" fill="#2B2A2E" transform="translate(0,0)"/>
<path d="" fill="#292730" transform="translate(0,0)"/>
<path d="" fill="#2C2830" transform="translate(0,0)"/>
<path d="" fill="#2B2A31" transform="translate(0,0)"/>
<path d="" fill="#2C2A32" transform="translate(0,0)"/>
<path d="" fill="#2E2A30" transform="translate(0,0)"/>
<path d="" fill="#302D38" transform="translate(0,0)"/>
<path d="" fill="#272831" transform="translate(0,0)"/>
<path d="" fill="#292A31" transform="translate(0,0)"/>
<path d="" fill="#2C2C32" transform="translate(0,0)"/>
<path d="" fill="#2B2931" transform="translate(0,0)"/>
<path d="" fill="#28292D" transform="translate(0,0)"/>
<path d="" fill="#2B272F" transform="translate(0,0)"/>
<path d="" fill="#282830" transform="translate(0,0)"/>
<path d="" fill="#2A292F" transform="translate(0,0)"/>
<path d="" fill="#2C2B34" transform="translate(0,0)"/>
<path d="" fill="#2A282F" transform="translate(0,0)"/>
<path d="" fill="#2B2933" transform="translate(0,0)"/>
<path d="" fill="#2E2C35" transform="translate(0,0)"/>
<path d="" fill="#29282F" transform="translate(0,0)"/>
<path d="" fill="#28262D" transform="translate(0,0)"/>
<path d="" fill="#29282E" transform="translate(0,0)"/>
<path d="" fill="#2C2B32" transform="translate(0,0)"/>
<path d="" fill="#2E2C31" transform="translate(0,0)"/>
<path d="" fill="#2C262D" transform="translate(0,0)"/>
<path d="" fill="#2A2A30" transform="translate(0,0)"/>
<path d="" fill="#27252F" transform="translate(0,0)"/>
<path d="" fill="#2A2931" transform="translate(0,0)"/>
<path d="" fill="#2B2931" transform="translate(0,0)"/>
<path d="" fill="#2A282E" transform="translate(0,0)"/>
<path d="" fill="#2B2B30" transform="translate(0,0)"/>
<path d="" fill="#2E2A33" transform="translate(0,0)"/>
<path d="" fill="#2C2D35" transform="translate(0,0)"/>
<path d="" fill="#28292E" transform="translate(0,0)"/>
<path d="" fill="#2A262E" transform="translate(0,0)"/>
<path d="" fill="#2E2D33" transform="translate(0,0)"/>
<path d="" fill="#2A2B30" transform="translate(0,0)"/>
<path d="" fill="#2C2932" transform="translate(0,0)"/>
<path d="" fill="#272630" transform="translate(0,0)"/>
<path d="" fill="#292A31" transform="translate(0,0)"/>
<path d="" fill="#2A282F" transform="translate(0,0)"/>
<path d="" fill="#292730" transform="translate(0,0)"/>
<path d="" fill="#2C2A34" transform="translate(0,0)"/>
<path d="" fill="#2F2B34" transform="translate(0,0)"/>
<path d="" fill="#2B2A31" transform="translate(0,0)"/>
<path d="" fill="#292830" transform="translate(0,0)"/>
<path d="" fill="#2E2B33" transform="translate(0,0)"/>
<path d="" fill="#292833" transform="translate(0,0)"/>
<path d="" fill="#292831" transform="translate(0,0)"/>
<path d="" fill="#2C2D33" transform="translate(0,0)"/>
<path d="" fill="#2C2B34" transform="translate(0,0)"/>
<path d="" fill="#2B2930" transform="translate(0,0)"/>
<path d="" fill="#2B2930" transform="translate(0,0)"/>
<path d="" fill="#292A2F" transform="translate(0,0)"/>
<path d="" fill="#2D2C36" transform="translate(0,0)"/>
<path d="" fill="#2E2E34" transform="translate(0,0)"/>
<path d="" fill="#302F33" transform="translate(0,0)"/>
<path d="" fill="#2D2A32" transform="translate(0,0)"/>
<path d="" fill="#2C2A33" transform="translate(0,0)"/>
<path d="" fill="#2B2C31" transform="translate(0,0)"/>
<path d="" fill="#2C2A32" transform="translate(0,0)"/>
<path d="" fill="#2D2A31" transform="translate(0,0)"/>
<path d="" fill="#2A2830" transform="translate(0,0)"/>
<path d="" fill="#2A2930" transform="translate(0,0)"/>
<path d="" fill="#2C2B32" transform="translate(0,0)"/>
<path d="" fill="#2E2C33" transform="translate(0,0)"/>
<path d="" fill="#2D2D34" transform="translate(0,0)"/>
<path d="" fill="#2B2A32" transform="translate(0,0)"/>
<path d="" fill="#2F2C33" transform="translate(0,0)"/>
<path d="" fill="#302D33" transform="translate(0,0)"/>
<path d="" fill="#2A2832" transform="translate(0,0)"/>
<path d="" fill="#2E2A33" transform="translate(0,0)"/>
<path d="" fill="#2B2932" transform="translate(0,0)"/>
<path d="" fill="#302F36" transform="translate(0,0)"/>
<path d="" fill="#2D2C33" transform="translate(0,0)"/>
<path d="" fill="#2F2E35" transform="translate(0,0)"/>
<path d="" fill="#2C2B32" transform="translate(0,0)"/>
<path d="" fill="#2B282F" transform="translate(0,0)"/>
<path d="" fill="#2F3035" transform="translate(0,0)"/>
<path d="" fill="#2B2930" transform="translate(0,0)"/>
<path d="" fill="#302E36" transform="translate(0,0)"/>
<path d="" fill="#302C37" transform="translate(0,0)"/>
<path d="" fill="#313036" transform="translate(0,0)"/>
<path d="" fill="#2F2C34" transform="translate(0,0)"/>
<path d="" fill="#323237" transform="translate(0,0)"/>
<path d="" fill="#312D35" transform="translate(0,0)"/>
<path d="" fill="#302E37" transform="translate(0,0)"/>
<path d="" fill="#332F38" transform="translate(0,0)"/>
<path d="" fill="#323035" transform="translate(0,0)"/>
<path d="" fill="#333037" transform="translate(0,0)"/>
<path d="" fill="#303037" transform="translate(0,0)"/>
<path d="" fill="#302E37" transform="translate(0,0)"/>
<path d="" fill="#312D39" transform="translate(0,0)"/>
<path d="" fill="#323339" transform="translate(0,0)"/>
<path d="" fill="#343239" transform="translate(0,0)"/>
<path d="" fill="#2E2C34" transform="translate(0,0)"/>
<path d="" fill="#302F35" transform="translate(0,0)"/>
<path d="" fill="#2D2D32" transform="translate(0,0)"/>
<path d="" fill="#282831" transform="translate(0,0)"/>
<path d="" fill="#2C2A32" transform="translate(0,0)"/>
<path d="" fill="#2C2A30" transform="translate(0,0)"/>
<path d="" fill="#2A2A31" transform="translate(0,0)"/>
<path d="" fill="#2B2A34" transform="translate(0,0)"/>
<path d="" fill="#2A2A31" transform="translate(0,0)"/>
<path d="" fill="#2B2B30" transform="translate(0,0)"/>
<path d="" fill="#2E2B31" transform="translate(0,0)"/>
<path d="" fill="#2C2930" transform="translate(0,0)"/>
<path d="" fill="#2C2B32" transform="translate(0,0)"/>
<path d="" fill="#2A2B2F" transform="translate(0,0)"/>
<path d="" fill="#312D36" transform="translate(0,0)"/>
<path d="" fill="#2D2831" transform="translate(0,0)"/>
<path d="" fill="#2B2D35" transform="translate(0,0)"/>
<path d="" fill="#2B2832" transform="translate(0,0)"/>
<path d="" fill="#2F2A32" transform="translate(0,0)"/>
<path d="" fill="#2D2A32" transform="translate(0,0)"/>
<path d="" fill="#2C2D31" transform="translate(0,0)"/>
<path d="" fill="#2C2931" transform="translate(0,0)"/>
<path d="" fill="#2B2A33" transform="translate(0,0)"/>
<path d="" fill="#2C2C34" transform="translate(0,0)"/>
<path d="" fill="#37343A" transform="translate(0,0)"/>
<path d="" fill="#2B2931" transform="translate(0,0)"/>
<path d="" fill="#2C2933" transform="translate(0,0)"/>
<path d="" fill="#303037" transform="translate(0,0)"/>
<path d="" fill="#2A292E" transform="translate(0,0)"/>
<path d="" fill="#2A2A31" transform="translate(0,0)"/>
<path d="" fill="#312F35" transform="translate(0,0)"/>
<path d="" fill="#313239" transform="translate(0,0)"/>
<path d="" fill="#333137" transform="translate(0,0)"/>
<path d="" fill="#302E35" transform="translate(0,0)"/>
<path d="" fill="#2E2B35" transform="translate(0,0)"/>
<path d="" fill="#37343B" transform="translate(0,0)"/>
</svg>
